0
SECTION
2
HEADER
9
$INSUNITS
70
4
9
$ACADVER
1
AC1014
9
$HANDSEED
5
FFFF
0
ENDSEC
0
SECTION
2
TABLES
0
TABLE
2
VPORT
5
8
100
AcDbSymbolTable
0
ENDTAB
0
TABLE
2
LTYPE
5
5
100
AcDbSymbolTable
0
LTYPE
5
14
100
AcDbSymbolTableRecord
100
AcDbLinetypeTableRecord
2
BYBLOCK
70
0
0
LTYPE
5
15
100
AcDbSymbolTableRecord
100
AcDbLinetypeTableRecord
2
BYLAYER
70
0
0
ENDTAB
0
TABLE
2
LAYER
5
2
100
AcDbSymbolTable
70
2
0
LAYER
5
50
100
AcDbSymbolTableRecord
100
AcDbLayerTableRecord
2
0
70
0
6
CONTINUOUS
0
ENDTAB
0
TABLE
2
STYLE
5
3
100
AcDbSymbolTable
70
1
0
STYLE
5
11
100
AcDbSymbolTableRecord
100
AcDbTextStyleTableRecord
2
STANDARD
70
0
0
ENDTAB
0
TABLE
2
VIEW
5
6
100
AcDbSymbolTable
70
0
0
ENDTAB
0
TABLE
2
UCS
5
7
100
AcDbSymbolTable
70
0
0
ENDTAB
0
TABLE
2
APPID
5
9
100
AcDbSymbolTable
70
2
0
APPID
5
12
100
AcDbSymbolTableRecord
100
AcDbRegAppTableRecord
2
ACAD
70
0
0
ENDTAB
0
TABLE
2
DIMSTYLE
5
A
100
AcDbSymbolTable
70
1
0
ENDTAB
0
TABLE
2
BLOCK_RECORD
5
1
100
AcDbSymbolTable
70
1
0
BLOCK_RECORD
5
1F
100
AcDbSymbolTableRecord
100
AcDbBlockTableRecord
2
*MODEL_SPACE
0
BLOCK_RECORD
5
1B
100
AcDbSymbolTableRecord
100
AcDbBlockTableRecord
2
*PAPER_SPACE
0
ENDTAB
0
ENDSEC
0
SECTION
2
BLOCKS
0
BLOCK
5
20
100
AcDbEntity
100
AcDbBlockBegin
2
*MODEL_SPACE
0
ENDBLK
5
21
100
AcDbEntity
100
AcDbBlockEnd
0
BLOCK
5
1C
100
AcDbEntity
100
AcDbBlockBegin
2
*PAPER_SPACE
0
ENDBLK
5
1D
100
AcDbEntity
100
AcDbBlockEnd
0
ENDSEC
0
SECTION
2
ENTITIES
0
LWPOLYLINE
5
100
100
AcDbEntity
8
OUTER_PROFILES
100
AcDbPolyline
90
8
70
1
43
0.0
10
47.000000000000014
20
0
10
0
20
0
42
-0.41421356237309503
10
-8.5
20
8.4999999999999964
10
-8.5000000000000053
20
98.54778684233861
42
-0.41421356237309492
10
-8.8817841970012523e-15
20
107.0477868423386
10
47
20
107.0477868423386
42
-0.41421356237309476
10
55.500000000000007
20
98.547786842338624
10
55.500000000000007
20
8.4999999999999964
42
-0.41421356237309503
0
CIRCLE
5
101
100
AcDbEntity
8
INTERIOR_PROFILES
100
AcDbCircle
10
-0.50000000000000266
20
99.04778684233861
30
0
40
3.4999999999999964
210
0
220
-0
230
1
0
LWPOLYLINE
5
102
100
AcDbEntity
8
INTERIOR_PROFILES
100
AcDbPolyline
90
4
70
1
43
0.0
10
43.000000000000028
20
65.523893421169277
42
0.99999999999999989
10
38.000000000000028
20
65.523893421169277
10
38.000000000000028
20
41.523893421169277
42
0.99999999999999989
10
43.000000000000028
20
41.523893421169277
0
CIRCLE
5
103
100
AcDbEntity
8
INTERIOR_PROFILES
100
AcDbCircle
10
47.5
20
99.04778684233861
30
0
40
3.4999999999999964
210
0
220
-0
230
1
0
CIRCLE
5
104
100
AcDbEntity
8
INTERIOR_PROFILES
100
AcDbCircle
10
47.5
20
83.047786842338596
30
0
40
3.4999999999999964
210
0
220
-0
230
1
0
CIRCLE
5
105
100
AcDbEntity
8
INTERIOR_PROFILES
100
AcDbCircle
10
35.5
20
83.047786842338596
30
0
40
3.4999999999999964
210
0
220
-0
230
1
0
CIRCLE
5
106
100
AcDbEntity
8
INTERIOR_PROFILES
100
AcDbCircle
10
35.5
20
99.04778684233861
30
0
40
3.4999999999999964
210
0
220
-0
230
1
0
CIRCLE
5
107
100
AcDbEntity
8
INTERIOR_PROFILES
100
AcDbCircle
10
23.5
20
83.047786842338596
30
0
40
3.4999999999999964
210
0
220
-0
230
1
0
CIRCLE
5
108
100
AcDbEntity
8
INTERIOR_PROFILES
100
AcDbCircle
10
11.5
20
99.04778684233861
30
0
40
3.4999999999999964
210
0
220
-0
230
1
0
CIRCLE
5
109
100
AcDbEntity
8
INTERIOR_PROFILES
100
AcDbCircle
10
11.5
20
83.047786842338596
30
0
40
3.4999999999999964
210
0
220
-0
230
1
0
CIRCLE
5
110
100
AcDbEntity
8
INTERIOR_PROFILES
100
AcDbCircle
10
23.5
20
99.04778684233861
30
0
40
3.4999999999999964
210
0
220
-0
230
1
0
CIRCLE
5
111
100
AcDbEntity
8
INTERIOR_PROFILES
100
AcDbCircle
10
-0.50000000000000266
20
83.047786842338596
30
0
40
3.4999999999999964
210
0
220
-0
230
1
0
LWPOLYLINE
5
112
100
AcDbEntity
8
INTERIOR_PROFILES
100
AcDbPolyline
90
4
70
1
43
0.0
10
8.9999999999999929
20
41.523893421169277
10
8.9999999999999769
20
65.523893421169262
42
0.99999999999999989
10
3.9999999999999769
20
65.523893421169277
10
3.9999999999999956
20
41.523893421169277
42
0.99999999999999989
0
LWPOLYLINE
5
113
100
AcDbEntity
8
INTERIOR_PROFILES
100
AcDbPolyline
90
8
70
1
43
0.0
10
25.500000000000007
20
71.023893421169248
10
21.500000000000004
20
71.023893421169248
42
0.41421356237309503
10
17.500000000000004
20
67.023893421169248
10
17.500000000000004
20
40.023893421169262
42
0.41421356237309503
10
21.500000000000004
20
36.023893421169255
10
25.500000000000004
20
36.023893421169262
42
0.41421356237309503
10
29.5
20
40.023893421169262
10
29.500000000000007
20
67.023893421169262
42
0.41421356237309437
0
CIRCLE
5
114
100
AcDbEntity
8
INTERIOR_PROFILES
100
AcDbCircle
10
-47.5
20
24.000000000000004
30
0
40
3.5000000000000009
210
0
220
0
230
-1
0
CIRCLE
5
115
100
AcDbEntity
8
INTERIOR_PROFILES
100
AcDbCircle
10
-47.5
20
7.9999999999999982
30
0
40
3.5000000000000004
210
0
220
0
230
-1
0
CIRCLE
5
116
100
AcDbEntity
8
INTERIOR_PROFILES
100
AcDbCircle
10
-35.5
20
24.000000000000004
30
0
40
3.5000000000000009
210
0
220
0
230
-1
0
CIRCLE
5
117
100
AcDbEntity
8
INTERIOR_PROFILES
100
AcDbCircle
10
-35.5
20
7.9999999999999982
30
0
40
3.5000000000000004
210
0
220
0
230
-1
0
CIRCLE
5
118
100
AcDbEntity
8
INTERIOR_PROFILES
100
AcDbCircle
10
0.50000000000000266
20
24.000000000000004
30
0
40
3.5000000000000009
210
0
220
0
230
-1
0
CIRCLE
5
119
100
AcDbEntity
8
INTERIOR_PROFILES
100
AcDbCircle
10
-23.5
20
24.000000000000004
30
0
40
3.5000000000000009
210
0
220
0
230
-1
0
CIRCLE
5
120
100
AcDbEntity
8
INTERIOR_PROFILES
100
AcDbCircle
10
-11.5
20
7.9999999999999982
30
0
40
3.5000000000000004
210
0
220
0
230
-1
0
CIRCLE
5
121
100
AcDbEntity
8
INTERIOR_PROFILES
100
AcDbCircle
10
-23.5
20
7.9999999999999982
30
0
40
3.5000000000000004
210
0
220
0
230
-1
0
CIRCLE
5
122
100
AcDbEntity
8
INTERIOR_PROFILES
100
AcDbCircle
10
-11.5
20
24.000000000000004
30
0
40
3.5000000000000009
210
0
220
0
230
-1
0
CIRCLE
5
123
100
AcDbEntity
8
INTERIOR_PROFILES
100
AcDbCircle
10
0.50000000000000266
20
7.9999999999999982
30
0
40
3.5000000000000004
210
0
220
0
230
-1
0
LINE
5
124
100
AcDbEntity
8
BEND
100
AcDbLine
10
55.500000000000028
20
76.785840131753943
30
-5.7870054228558601e-14
11
-8.4999999999999964
21
76.785840131753943
31
-5.7870054228558601e-14
0
LINE
5
125
100
AcDbEntity
8
BEND
100
AcDbLine
10
-8.4999999999999929
20
30.261946710584652
30
-4.6862295148066237e-14
11
55.500000000000028
21
30.261946710584652
31
-4.6862295148066237e-14
0
LINE
5
126
100
AcDbEntity
8
BEND_EXTENT
100
AcDbLine
10
-8.5
20
28
30
-5.3290705182007514e-14
11
55.500000000000007
21
28
31
-5.3290705182007514e-14
0
LINE
5
127
100
AcDbEntity
8
BEND_EXTENT
100
AcDbLine
10
55.500000000000028
20
32.523893421169312
30
-5.9952043329758453e-14
11
-8.4999999999999964
21
32.523893421169312
31
-5.9952043329758453e-14
0
LINE
5
128
100
AcDbEntity
8
BEND_EXTENT
100
AcDbLine
10
55.500000000000028
20
74.523893421169305
30
-5.9952043329758453e-14
11
-8.4999999999999964
21
74.523893421169305
31
-5.9952043329758453e-14
0
LINE
5
129
100
AcDbEntity
8
BEND_EXTENT
100
AcDbLine
10
-8.5
20
79.04778684233861
30
-5.6049682714774818e-14
11
55.500000000000007
21
79.04778684233861
31
-5.6049682714774818e-14
0
ENDSEC
0
SECTION
2
OBJECTS
0
DICTIONARY
5
C
100
AcDbDictionary
3
ACAD_GROUP
350
D
3
ACAD_MLINESTYLE
350
17
0
DICTIONARY
5
D
100
AcDbDictionary
0
DICTIONARY
5
1A
330
C
100
AcDbDictionary
0
DICTIONARY
5
17
100
AcDbDictionary
0
ENDSEC
0
EOF
