  0
SECTION
  2
HEADER
  9
$ACADVER
  1
AC1003
  9
$EXTMIN
 10
1
 20
14.9798904440402
  9
$EXTMAX
 10
6.91684144276213
 20
1.51996415093419
  9
$INSUNITS
 70
1
  9
$INSBASE
 10
3.95842072138106
 20
8.24992729748721
999
Created with OMAX LAYOUT for Windows. (www.omax.com) 2/19/2022
  0
ENDSEC
  0
SECTION
  2
TABLES
  0
TABLE
  2
LAYER
 70
    10
  0
LAYER
  2
0
 70
     0
 62
     7
  6
CONTINUOUS
  0
LAYER
  2
1
 70
     0
 62
     7
  6
CONTINUOUS
  0
LAYER
  2
2
 70
     0
 62
     7
  6
CONTINUOUS
  0
LAYER
  2
3
 70
     0
 62
     7
  6
CONTINUOUS
  0
LAYER
  2
4
 70
     0
 62
     7
  6
CONTINUOUS
  0
LAYER
  2
5
 70
     0
 62
     7
  6
CONTINUOUS
  0
LAYER
  2
6
 70
     0
 62
     7
  6
CONTINUOUS
  0
LAYER
  2
7
 70
     0
 62
     7
  6
CONTINUOUS
  0
LAYER
  2
8
 70
     0
 62
     7
  6
CONTINUOUS
  0
LAYER
  2
9
 70
     0
 62
     7
  6
CONTINUOUS
  0
LAYER
  2
10
 70
     0
 62
     7
  6
CONTINUOUS
  0
LAYER
  2
11
 70
     0
 62
     7
  6
CONTINUOUS
  0
LAYER
  2
12
 70
     0
 62
     7
  6
CONTINUOUS
  0
LAYER
  2
13
 70
     0
 62
     7
  6
CONTINUOUS
  0
LAYER
  2
14
 70
     0
 62
     7
  6
CONTINUOUS
  0
LAYER
  2
15
 70
     0
 62
     7
  6
CONTINUOUS
  0
LAYER
  2
16
 70
     0
 62
     7
  6
CONTINUOUS
  0
LAYER
  2
17
 70
     0
 62
     7
  6
CONTINUOUS
  0
LAYER
  2
18
 70
     0
 62
     7
  6
CONTINUOUS
  0
LAYER
  2
19
 70
     0
 62
     7
  6
CONTINUOUS
  0
LAYER
  2
20
 70
     0
 62
     7
  6
CONTINUOUS
  0
LAYER
  2
21
 70
     0
 62
     7
  6
CONTINUOUS
  0
LAYER
  2
22
 70
     0
 62
     7
  6
CONTINUOUS
  0
LAYER
  2
23
 70
     0
 62
     7
  6
CONTINUOUS
  0
LAYER
  2
24
 70
     0
 62
     7
  6
CONTINUOUS
  0
LAYER
  2
25
 70
     0
 62
     7
  6
CONTINUOUS
  0
LAYER
  2
26
 70
     0
 62
     7
  6
CONTINUOUS
  0
LAYER
  2
27
 70
     0
 62
     7
  6
CONTINUOUS
  0
LAYER
  2
28
 70
     0
 62
     7
  6
CONTINUOUS
  0
LAYER
  2
29
 70
     0
 62
     7
  6
CONTINUOUS
  0
LAYER
  2
30
 70
     0
 62
     7
  6
CONTINUOUS
  0
LAYER
  2
31
 70
     0
 62
     7
  6
CONTINUOUS
  0
ENDTAB
  0
ENDSEC
  0
SECTION
  2
ENTITIES
  0
ARC
  8
0
  6
CONTINUOUS
 62
0
 10
1.23618489870102
 20
1.95251826015973
 30
0.0
 40
0.0984022539078878
 50
359.999999999999
 51
180
  0
ARC
  8
0
  6
CONTINUOUS
 62
0
 10
1.23618489870102
 20
1.95251826015972
 30
0.0
 40
0.0984022539078878
 50
179.999999999999
 51
359.999999999999
  0
ARC
  8
0
  6
CONTINUOUS
 62
0
 10
1.62989114976133
 20
1.95251826015973
 30
0.0
 40
0.0984022539078898
 50
359.999999999999
 51
180
  0
ARC
  8
0
  6
CONTINUOUS
 62
0
 10
1.62989114976133
 20
1.95251826015972
 30
0.0
 40
0.0984022539078898
 50
179.999999999999
 51
359.999999999999
  0
ARC
  8
0
  6
CONTINUOUS
 62
0
 10
2.4370424439208
 20
1.90331713320579
 30
0.0
 40
0.0984022539078886
 50
359.999999999999
 51
180
  0
ARC
  8
0
  6
CONTINUOUS
 62
0
 10
2.4370424439208
 20
1.90331713320579
 30
0.0
 40
0.0984022539078886
 50
179.999999999999
 51
359.999999999999
  0
ARC
  8
0
  6
CONTINUOUS
 62
0
 10
2.4370424439208
 20
2.45444754343299
 30
0.0
 40
0.0984022539078886
 50
359.999999999999
 51
180
  0
ARC
  8
0
  6
CONTINUOUS
 62
0
 10
2.4370424439208
 20
2.45444754343299
 30
0.0
 40
0.0984022539078886
 50
179.999999999999
 51
359.999999999999
  0
ARC
  8
0
  6
CONTINUOUS
 62
0
 10
2.61422346810729
 20
2.61198702986418
 30
0.0
 40
0.157503322653918
 50
359.99341864155
 51
89.9712026750954
  0
LINE
  8
0
  6
CONTINUOUS
 62
0
 10
2.61420539512651
 20
2.76939309719547
 30
0.0
 11
2.13347343532354
 21
2.76939309719547
 31
0.0
  0
ARC
  8
0
  6
CONTINUOUS
 62
0
 10
2.13344094553077
 20
2.61180285619407
 30
0.0
 40
0.157687529790892
 50
89.9528643226345
 51
112.273216749306
  0
LINE
  8
0
  6
CONTINUOUS
 62
0
 10
2.07357641120569
 20
2.7576276103152
 30
0.0
 11
1.09762441271412
 21
2.3568231729552
 31
0.0
  0
ARC
  8
0
  6
CONTINUOUS
 62
0
 10
1.15753284693633
 20
2.21118362113558
 30
0.0
 40
0.157532824067224
 50
112.313522914905
 51
179.971589046047
  0
LINE
  8
0
  6
CONTINUOUS
 62
0
 10
1.00000004223633
 20
2.21116450066862
 30
0.0
 11
1.00000004223633
 21
1.74579573861016
 31
0.0
  0
ARC
  8
0
  6
CONTINUOUS
 62
0
 10
1.15750338270596
 20
1.74577762791983
 30
0.0
 40
0.157503382705957
 50
179.958039971681
 51
269.935824005226
  0
LINE
  8
0
  6
CONTINUOUS
 62
0
 10
1.15752143683196
 20
1.58837157944331
 30
0.0
 11
2.61420539512651
 21
1.58837157944331
 31
0.0
  0
ARC
  8
0
  6
CONTINUOUS
 62
0
 10
2.61417488810246
 20
1.74582632105331
 30
0.0
 40
0.157552062357071
 50
269.940372488902
 51
359.918156522447
  0
LINE
  8
0
  6
CONTINUOUS
 62
0
 10
2.77162955429337
 20
1.74579573861016
 30
0.0
 11
2.77162955429337
 21
2.61196893802862
 31
0.0
  0
ARC
  8
0
  6
CONTINUOUS
 62
0
 10
1.27225898877216
 20
3.24599252713969
 30
0.0
 40
0.0984022539078849
 50
359.999999999999
 51
180
  0
ARC
  8
0
  6
CONTINUOUS
 62
0
 10
1.27225898877216
 20
3.24599252713968
 30
0.0
 40
0.0984022539078849
 50
179.999999999999
 51
359.999999999999
  0
ARC
  8
0
  6
CONTINUOUS
 62
0
 10
1.66596523983248
 20
3.24599252713969
 30
0.0
 40
0.0984022539078899
 50
359.999999999999
 51
180
  0
ARC
  8
0
  6
CONTINUOUS
 62
0
 10
1.66596523983248
 20
3.24599252713968
 30
0.0
 40
0.0984022539078899
 50
179.999999999999
 51
359.999999999999
  0
ARC
  8
0
  6
CONTINUOUS
 62
0
 10
2.47311653399195
 20
3.19679140018575
 30
0.0
 40
0.0984022539078899
 50
359.999999999999
 51
180
  0
ARC
  8
0
  6
CONTINUOUS
 62
0
 10
2.47311653399195
 20
3.19679140018574
 30
0.0
 40
0.0984022539078899
 50
179.999999999999
 51
359.999999999999
  0
ARC
  8
0
  6
CONTINUOUS
 62
0
 10
2.47311653399195
 20
3.74792181041295
 30
0.0
 40
0.0984022539078899
 50
359.999999999999
 51
180
  0
ARC
  8
0
  6
CONTINUOUS
 62
0
 10
2.47311653399195
 20
3.74792181041295
 30
0.0
 40
0.0984022539078899
 50
179.999999999999
 51
359.999999999999
  0
ARC
  8
0
  6
CONTINUOUS
 62
0
 10
2.65029755817844
 20
3.90546129684413
 30
0.0
 40
0.157503322653918
 50
359.99341864155
 51
89.9712026750955
  0
LINE
  8
0
  6
CONTINUOUS
 62
0
 10
2.65027948519766
 20
4.06286736417543
 30
0.0
 11
2.16954752539469
 21
4.06286736417543
 31
0.0
  0
ARC
  8
0
  6
CONTINUOUS
 62
0
 10
2.1695150356019
 20
3.90527712317403
 30
0.0
 40
0.157687529790878
 50
89.9528643226308
 51
112.273216749302
  0
LINE
  8
0
  6
CONTINUOUS
 62
0
 10
2.10965050127684
 20
4.05110187729516
 30
0.0
 11
1.13369850278527
 21
3.65029743993516
 31
0.0
  0
ARC
  8
0
  6
CONTINUOUS
 62
0
 10
1.19360693700748
 20
3.50465788811553
 30
0.0
 40
0.157532824067228
 50
112.313522914906
 51
179.971589046048
  0
LINE
  8
0
  6
CONTINUOUS
 62
0
 10
1.03607413230748
 20
3.50463876764858
 30
0.0
 11
1.03607413230748
 21
3.03927000559012
 31
0.0
  0
ARC
  8
0
  6
CONTINUOUS
 62
0
 10
1.1935774727771
 20
3.03925189489979
 30
0.0
 40
0.157503382705954
 50
179.95803997168
 51
269.935824005225
  0
LINE
  8
0
  6
CONTINUOUS
 62
0
 10
1.19359552690311
 20
2.88184584642327
 30
0.0
 11
2.65027948519766
 21
2.88184584642327
 31
0.0
  0
ARC
  8
0
  6
CONTINUOUS
 62
0
 10
2.6502489781736
 20
3.03930058803327
 30
0.0
 40
0.157552062357073
 50
269.940372488901
 51
359.918156522446
  0
LINE
  8
0
  6
CONTINUOUS
 62
0
 10
2.80770364436452
 20
3.03927000559012
 30
0.0
 11
2.80770364436452
 21
3.90544320500858
 31
0.0
  0
ARC
  8
0
  6
CONTINUOUS
 62
0
 10
1.31821599412795
 20
4.52664472782546
 30
0.0
 40
0.0984022539078848
 50
359.999999999999
 51
180
  0
ARC
  8
0
  6
CONTINUOUS
 62
0
 10
1.31821599412795
 20
4.52664472782546
 30
0.0
 40
0.0984022539078848
 50
179.999999999999
 51
359.999999999999
  0
ARC
  8
0
  6
CONTINUOUS
 62
0
 10
1.71192224518826
 20
4.52664472782546
 30
0.0
 40
0.0984022539078899
 50
359.999999999999
 51
180
  0
ARC
  8
0
  6
CONTINUOUS
 62
0
 10
1.71192224518826
 20
4.52664472782546
 30
0.0
 40
0.0984022539078899
 50
179.999999999999
 51
359.999999999999
  0
ARC
  8
0
  6
CONTINUOUS
 62
0
 10
2.51907353934773
 20
4.47744360087152
 30
0.0
 40
0.0984022539078899
 50
359.999999999999
 51
180
  0
ARC
  8
0
  6
CONTINUOUS
 62
0
 10
2.51907353934773
 20
4.47744360087152
 30
0.0
 40
0.0984022539078899
 50
179.999999999999
 51
359.999999999999
  0
ARC
  8
0
  6
CONTINUOUS
 62
0
 10
2.51907353934773
 20
5.02857401109872
 30
0.0
 40
0.0984022539078899
 50
359.999999999999
 51
180
  0
ARC
  8
0
  6
CONTINUOUS
 62
0
 10
2.51907353934773
 20
5.02857401109871
 30
0.0
 40
0.0984022539078899
 50
179.999999999999
 51
359.999999999999
  0
ARC
  8
0
  6
CONTINUOUS
 62
0
 10
2.69625456353423
 20
5.1861134975299
 30
0.0
 40
0.157503322653919
 50
359.99341864155
 51
89.9712026750954
  0
LINE
  8
0
  6
CONTINUOUS
 62
0
 10
2.69623649055344
 20
5.3435195648612
 30
0.0
 11
2.21550453075047
 21
5.3435195648612
 31
0.0
  0
ARC
  8
0
  6
CONTINUOUS
 62
0
 10
2.21547204095769
 20
5.1859293238598
 30
0.0
 40
0.157687529790878
 50
89.9528643226308
 51
112.273216749302
  0
LINE
  8
0
  6
CONTINUOUS
 62
0
 10
2.15560750663262
 20
5.33175407798093
 30
0.0
 11
1.17965550814105
 21
4.93094964062093
 31
0.0
  0
ARC
  8
0
  6
CONTINUOUS
 62
0
 10
1.23956394236326
 20
4.7853100888013
 30
0.0
 40
0.157532824067228
 50
112.313522914906
 51
179.971589046048
  0
LINE
  8
0
  6
CONTINUOUS
 62
0
 10
1.08203113766326
 20
4.78529096833435
 30
0.0
 11
1.08203113766326
 21
4.31992220627589
 31
0.0
  0
ARC
  8
0
  6
CONTINUOUS
 62
0
 10
1.23953447813289
 20
4.31990409558556
 30
0.0
 40
0.157503382705954
 50
179.95803997168
 51
269.935824005225
  0
LINE
  8
0
  6
CONTINUOUS
 62
0
 10
1.23955253225889
 20
4.16249804710904
 30
0.0
 11
2.69623649055344
 21
4.16249804710904
 31
0.0
  0
ARC
  8
0
  6
CONTINUOUS
 62
0
 10
2.69620598352939
 20
4.31995278871904
 30
0.0
 40
0.157552062357073
 50
269.940372488901
 51
359.918156522446
  0
LINE
  8
0
  6
CONTINUOUS
 62
0
 10
2.8536606497203
 20
4.31992220627589
 30
0.0
 11
2.8536606497203
 21
5.18609540569435
 31
0.0
  0
ARC
  8
0
  6
CONTINUOUS
 62
0
 10
1.37855620730477
 20
5.85331733801834
 30
0.0
 40
0.098402253907885
 50
359.999999999999
 51
180
  0
ARC
  8
0
  6
CONTINUOUS
 62
0
 10
1.37855620730477
 20
5.85331733801834
 30
0.0
 40
0.098402253907885
 50
179.999999999999
 51
359.999999999999
  0
ARC
  8
0
  6
CONTINUOUS
 62
0
 10
1.77226245836509
 20
5.85331733801834
 30
0.0
 40
0.0984022539078899
 50
359.999999999999
 51
180
  0
ARC
  8
0
  6
CONTINUOUS
 62
0
 10
1.77226245836509
 20
5.85331733801834
 30
0.0
 40
0.0984022539078899
 50
179.999999999999
 51
359.999999999999
  0
ARC
  8
0
  6
CONTINUOUS
 62
0
 10
2.57941375252456
 20
5.8041162110644
 30
0.0
 40
0.0984022539078899
 50
359.999999999999
 51
180
  0
ARC
  8
0
  6
CONTINUOUS
 62
0
 10
2.57941375252456
 20
5.8041162110644
 30
0.0
 40
0.0984022539078899
 50
179.999999999999
 51
359.999999999999
  0
ARC
  8
0
  6
CONTINUOUS
 62
0
 10
2.57941375252456
 20
6.3552466212916
 30
0.0
 40
0.0984022539078899
 50
359.999999999999
 51
180
  0
ARC
  8
0
  6
CONTINUOUS
 62
0
 10
2.57941375252456
 20
6.3552466212916
 30
0.0
 40
0.0984022539078899
 50
179.999999999999
 51
359.999999999999
  0
ARC
  8
0
  6
CONTINUOUS
 62
0
 10
2.75659477671105
 20
6.51278610772279
 30
0.0
 40
0.157503322653919
 50
359.99341864155
 51
89.9712026750954
  0
LINE
  8
0
  6
CONTINUOUS
 62
0
 10
2.75657670373027
 20
6.67019217505408
 30
0.0
 11
2.2758447439273
 21
6.67019217505408
 31
0.0
  0
ARC
  8
0
  6
CONTINUOUS
 62
0
 10
2.27581225413451
 20
6.51260193405269
 30
0.0
 40
0.157687529790877
 50
89.9528643226318
 51
112.273216749303
  0
LINE
  8
0
  6
CONTINUOUS
 62
0
 10
2.21594771980945
 20
6.65842668817381
 30
0.0
 11
1.23999572131788
 21
6.25762225081381
 31
0.0
  0
ARC
  8
0
  6
CONTINUOUS
 62
0
 10
1.29990415554009
 20
6.11198269899419
 30
0.0
 40
0.157532824067228
 50
112.313522914906
 51
179.971589046049
  0
LINE
  8
0
  6
CONTINUOUS
 62
0
 10
1.14237135084009
 20
6.11196357852723
 30
0.0
 11
1.14237135084009
 21
5.64659481646877
 31
0.0
  0
ARC
  8
0
  6
CONTINUOUS
 62
0
 10
1.29987469130971
 20
5.64657670577845
 30
0.0
 40
0.157503382705953
 50
179.95803997168
 51
269.935824005225
  0
LINE
  8
0
  6
CONTINUOUS
 62
0
 10
1.29989274543572
 20
5.48917065730192
 30
0.0
 11
2.75657670373027
 21
5.48917065730192
 31
0.0
  0
ARC
  8
0
  6
CONTINUOUS
 62
0
 10
2.75654619670621
 20
5.64662539891192
 30
0.0
 40
0.157552062357072
 50
269.940372488902
 51
359.918156522447
  0
LINE
  8
0
  6
CONTINUOUS
 62
0
 10
2.91400086289713
 20
5.64659481646877
 30
0.0
 11
2.91400086289713
 21
6.51276801588723
 31
0.0
  0
ARC
  8
0
  6
CONTINUOUS
 62
0
 10
1.41392128469081
 20
7.14118280908513
 30
0.0
 40
0.0984022539078848
 50
359.999999999999
 51
180
  0
ARC
  8
0
  6
CONTINUOUS
 62
0
 10
1.41392128469081
 20
7.14118280908513
 30
0.0
 40
0.0984022539078848
 50
179.999999999999
 51
359.999999999999
  0
ARC
  8
0
  6
CONTINUOUS
 62
0
 10
1.80762753575113
 20
7.14118280908513
 30
0.0
 40
0.0984022539078899
 50
359.999999999999
 51
180
  0
ARC
  8
0
  6
CONTINUOUS
 62
0
 10
1.80762753575113
 20
7.14118280908513
 30
0.0
 40
0.0984022539078899
 50
179.999999999999
 51
359.999999999999
  0
ARC
  8
0
  6
CONTINUOUS
 62
0
 10
2.6147788299106
 20
7.09198168213119
 30
0.0
 40
0.0984022539078899
 50
359.999999999999
 51
180
  0
ARC
  8
0
  6
CONTINUOUS
 62
0
 10
2.6147788299106
 20
7.09198168213119
 30
0.0
 40
0.0984022539078899
 50
179.999999999999
 51
359.999999999999
  0
ARC
  8
0
  6
CONTINUOUS
 62
0
 10
2.6147788299106
 20
7.64311209235839
 30
0.0
 40
0.0984022539078899
 50
359.999999999999
 51
180
  0
ARC
  8
0
  6
CONTINUOUS
 62
0
 10
2.6147788299106
 20
7.64311209235839
 30
0.0
 40
0.0984022539078899
 50
179.999999999999
 51
359.999999999999
  0
ARC
  8
0
  6
CONTINUOUS
 62
0
 10
2.79195985409709
 20
7.80065157878958
 30
0.0
 40
0.157503322653919
 50
359.99341864155
 51
89.9712026750954
  0
LINE
  8
0
  6
CONTINUOUS
 62
0
 10
2.79194178111631
 20
7.95805764612087
 30
0.0
 11
2.31120982131334
 21
7.95805764612087
 31
0.0
  0
ARC
  8
0
  6
CONTINUOUS
 62
0
 10
2.31117733152055
 20
7.80046740511948
 30
0.0
 40
0.157687529790878
 50
89.9528643226308
 51
112.273216749302
  0
LINE
  8
0
  6
CONTINUOUS
 62
0
 10
2.25131279719549
 20
7.9462921592406
 30
0.0
 11
1.27536079870392
 21
7.5454877218806
 31
0.0
  0
ARC
  8
0
  6
CONTINUOUS
 62
0
 10
1.33526923292613
 20
7.39984817006097
 30
0.0
 40
0.157532824067228
 50
112.313522914906
 51
179.971589046048
  0
LINE
  8
0
  6
CONTINUOUS
 62
0
 10
1.17773642822613
 20
7.39982904959402
 30
0.0
 11
1.17773642822613
 21
6.93446028753556
 31
0.0
  0
ARC
  8
0
  6
CONTINUOUS
 62
0
 10
1.33523976869575
 20
6.93444217684523
 30
0.0
 40
0.157503382705954
 50
179.95803997168
 51
269.935824005225
  0
LINE
  8
0
  6
CONTINUOUS
 62
0
 10
1.33525782282176
 20
6.77703612836871
 30
0.0
 11
2.79194178111631
 21
6.77703612836871
 31
0.0
  0
ARC
  8
0
  6
CONTINUOUS
 62
0
 10
2.79191127409225
 20
6.93449086997871
 30
0.0
 40
0.157552062357073
 50
269.940372488901
 51
359.918156522446
  0
LINE
  8
0
  6
CONTINUOUS
 62
0
 10
2.94936594028317
 20
6.93446028753556
 30
0.0
 11
2.94936594028317
 21
7.80063348695402
 31
0.0
  0
ARC
  8
0
  6
CONTINUOUS
 62
0
 10
1.38358973384103
 20
8.54293994303713
 30
0.0
 40
0.098402253907885
 50
359.999999999999
 51
180
  0
ARC
  8
0
  6
CONTINUOUS
 62
0
 10
1.38358973384103
 20
8.54293994303712
 30
0.0
 40
0.098402253907885
 50
179.999999999999
 51
359.999999999999
  0
ARC
  8
0
  6
CONTINUOUS
 62
0
 10
1.77729598490134
 20
8.54293994303713
 30
0.0
 40
0.0984022539078899
 50
359.999999999999
 51
180
  0
ARC
  8
0
  6
CONTINUOUS
 62
0
 10
1.77729598490134
 20
8.54293994303712
 30
0.0
 40
0.0984022539078899
 50
179.999999999999
 51
359.999999999999
  0
ARC
  8
0
  6
CONTINUOUS
 62
0
 10
2.58444727906081
 20
8.49373881608319
 30
0.0
 40
0.0984022539078895
 50
359.999999999999
 51
180
  0
ARC
  8
0
  6
CONTINUOUS
 62
0
 10
2.58444727906081
 20
8.49373881608318
 30
0.0
 40
0.0984022539078895
 50
179.999999999999
 51
359.999999999999
  0
ARC
  8
0
  6
CONTINUOUS
 62
0
 10
2.58444727906081
 20
9.04486922631039
 30
0.0
 40
0.0984022539078895
 50
359.999999999999
 51
180
  0
ARC
  8
0
  6
CONTINUOUS
 62
0
 10
2.58444727906081
 20
9.04486922631038
 30
0.0
 40
0.0984022539078895
 50
179.999999999999
 51
359.999999999999
  0
ARC
  8
0
  6
CONTINUOUS
 62
0
 10
2.7616283032473
 20
9.20240871274157
 30
0.0
 40
0.157503322653919
 50
359.99341864155
 51
89.9712026750954
  0
LINE
  8
0
  6
CONTINUOUS
 62
0
 10
2.76161023026652
 20
9.35981478007286
 30
0.0
 11
2.28087827046355
 21
9.35981478007286
 31
0.0
  0
ARC
  8
0
  6
CONTINUOUS
 62
0
 10
2.28084578067076
 20
9.20222453907147
 30
0.0
 40
0.157687529790878
 50
89.9528643226299
 51
112.273216749301
  0
LINE
  8
0
  6
CONTINUOUS
 62
0
 10
2.2209812463457
 20
9.3480492931926
 30
0.0
 11
1.24502924785413
 21
8.94724485583259
 31
0.0
  0
ARC
  8
0
  6
CONTINUOUS
 62
0
 10
1.30493768207634
 20
8.80160530401297
 30
0.0
 40
0.157532824067228
 50
112.313522914906
 51
179.971589046049
  0
LINE
  8
0
  6
CONTINUOUS
 62
0
 10
1.14740487737634
 20
8.80158618354601
 30
0.0
 11
1.14740487737634
 21
8.33621742148755
 31
0.0
  0
ARC
  8
0
  6
CONTINUOUS
 62
0
 10
1.30490821784597
 20
8.33619931079723
 30
0.0
 40
0.157503382705954
 50
179.95803997168
 51
269.935824005225
  0
LINE
  8
0
  6
CONTINUOUS
 62
0
 10
1.30492627197197
 20
8.1787932623207
 30
0.0
 11
2.76161023026652
 21
8.1787932623207
 31
0.0
  0
ARC
  8
0
  6
CONTINUOUS
 62
0
 10
2.76157972324247
 20
8.3362480039307
 30
0.0
 40
0.157552062357073
 50
269.940372488902
 51
359.918156522447
  0
LINE
  8
0
  6
CONTINUOUS
 62
0
 10
2.91903438943338
 20
8.33621742148755
 30
0.0
 11
2.91903438943338
 21
9.20239062090601
 31
0.0
  0
ARC
  8
0
  6
CONTINUOUS
 62
0
 10
1.40057557909278
 20
9.86404317823255
 30
0.0
 40
0.098402253907885
 50
359.999999999999
 51
180
  0
ARC
  8
0
  6
CONTINUOUS
 62
0
 10
1.40057557909278
 20
9.86404317823255
 30
0.0
 40
0.098402253907885
 50
179.999999999999
 51
359.999999999999
  0
ARC
  8
0
  6
CONTINUOUS
 62
0
 10
1.79428183015309
 20
9.86404317823255
 30
0.0
 40
0.0984022539078899
 50
359.999999999999
 51
180
  0
ARC
  8
0
  6
CONTINUOUS
 62
0
 10
1.79428183015309
 20
9.86404317823255
 30
0.0
 40
0.0984022539078899
 50
179.999999999999
 51
359.999999999999
  0
ARC
  8
0
  6
CONTINUOUS
 62
0
 10
2.60143312431256
 20
9.81484205127861
 30
0.0
 40
0.0984022539078899
 50
359.999999999999
 51
180
  0
ARC
  8
0
  6
CONTINUOUS
 62
0
 10
2.60143312431256
 20
9.81484205127861
 30
0.0
 40
0.0984022539078899
 50
179.999999999999
 51
359.999999999999
  0
ARC
  8
0
  6
CONTINUOUS
 62
0
 10
2.60143312431256
 20
10.3659724615058
 30
0.0
 40
0.0984022539078899
 50
359.999999999999
 51
180
  0
ARC
  8
0
  6
CONTINUOUS
 62
0
 10
2.60143312431256
 20
10.3659724615058
 30
0.0
 40
0.0984022539078899
 50
179.999999999999
 51
359.999999999999
  0
ARC
  8
0
  6
CONTINUOUS
 62
0
 10
2.77861414849906
 20
10.523511947937
 30
0.0
 40
0.157503322653919
 50
359.99341864155
 51
89.9712026750954
  0
LINE
  8
0
  6
CONTINUOUS
 62
0
 10
2.77859607551827
 20
10.6809180152683
 30
0.0
 11
2.2978641157153
 21
10.6809180152683
 31
0.0
  0
ARC
  8
0
  6
CONTINUOUS
 62
0
 10
2.29783162592252
 20
10.5233277742669
 30
0.0
 40
0.157687529790878
 50
89.9528643226299
 51
112.273216749301
  0
LINE
  8
0
  6
CONTINUOUS
 62
0
 10
2.23796709159745
 20
10.669152528388
 30
0.0
 11
1.26201509310588
 21
10.268348091028
 31
0.0
  0
ARC
  8
0
  6
CONTINUOUS
 62
0
 10
1.32192352732809
 20
10.1227085392084
 30
0.0
 40
0.157532824067228
 50
112.313522914906
 51
179.971589046048
  0
LINE
  8
0
  6
CONTINUOUS
 62
0
 10
1.16439072262809
 20
10.1226894187414
 30
0.0
 11
1.16439072262809
 21
9.65732065668298
 31
0.0
  0
ARC
  8
0
  6
CONTINUOUS
 62
0
 10
1.32189406309772
 20
9.65730254599265
 30
0.0
 40
0.157503382705953
 50
179.95803997168
 51
269.935824005225
  0
LINE
  8
0
  6
CONTINUOUS
 62
0
 10
1.32191211722372
 20
9.49989649751613
 30
0.0
 11
2.77859607551827
 21
9.49989649751613
 31
0.0
  0
ARC
  8
0
  6
CONTINUOUS
 62
0
 10
2.77856556849422
 20
9.65735123912613
 30
0.0
 40
0.157552062357072
 50
269.940372488901
 51
359.918156522446
  0
LINE
  8
0
  6
CONTINUOUS
 62
0
 10
2.93602023468513
 20
9.65732065668298
 30
0.0
 11
2.93602023468513
 21
10.5234938561014
 31
0.0
  0
ARC
  8
0
  6
CONTINUOUS
 62
0
 10
1.40743837672722
 20
11.1671740283483
 30
0.0
 40
0.098402253907885
 50
359.999999999999
 51
180
  0
ARC
  8
0
  6
CONTINUOUS
 62
0
 10
1.40743837672722
 20
11.1671740283483
 30
0.0
 40
0.098402253907885
 50
179.999999999999
 51
359.999999999999
  0
ARC
  8
0
  6
CONTINUOUS
 62
0
 10
1.80114462778753
 20
11.1671740283483
 30
0.0
 40
0.0984022539078899
 50
359.999999999999
 51
180
  0
ARC
  8
0
  6
CONTINUOUS
 62
0
 10
1.80114462778753
 20
11.1671740283483
 30
0.0
 40
0.0984022539078899
 50
179.999999999999
 51
359.999999999999
  0
ARC
  8
0
  6
CONTINUOUS
 62
0
 10
2.608295921947
 20
11.1179729013944
 30
0.0
 40
0.0984022539078899
 50
359.999999999999
 51
180
  0
ARC
  8
0
  6
CONTINUOUS
 62
0
 10
2.608295921947
 20
11.1179729013944
 30
0.0
 40
0.0984022539078899
 50
179.999999999999
 51
359.999999999999
  0
ARC
  8
0
  6
CONTINUOUS
 62
0
 10
2.608295921947
 20
11.6691033116216
 30
0.0
 40
0.0984022539078899
 50
359.999999999999
 51
180
  0
ARC
  8
0
  6
CONTINUOUS
 62
0
 10
2.608295921947
 20
11.6691033116216
 30
0.0
 40
0.0984022539078899
 50
179.999999999999
 51
359.999999999999
  0
ARC
  8
0
  6
CONTINUOUS
 62
0
 10
2.7854769461335
 20
11.8266427980528
 30
0.0
 40
0.157503322653919
 50
359.99341864155
 51
89.9712026750954
  0
LINE
  8
0
  6
CONTINUOUS
 62
0
 10
2.78545887315271
 20
11.9840488653841
 30
0.0
 11
2.30472691334974
 21
11.9840488653841
 31
0.0
  0
ARC
  8
0
  6
CONTINUOUS
 62
0
 10
2.30469442355695
 20
11.8264586243827
 30
0.0
 40
0.157687529790877
 50
89.95286432263
 51
112.273216749301
  0
LINE
  8
0
  6
CONTINUOUS
 62
0
 10
2.24482988923189
 20
11.9722833785038
 30
0.0
 11
1.26887789074032
 21
11.5714789411438
 31
0.0
  0
ARC
  8
0
  6
CONTINUOUS
 62
0
 10
1.32878632496253
 20
11.4258393893242
 30
0.0
 40
0.157532824067228
 50
112.313522914906
 51
179.971589046048
  0
LINE
  8
0
  6
CONTINUOUS
 62
0
 10
1.17125352026253
 20
11.4258202688572
 30
0.0
 11
1.17125352026253
 21
10.9604515067988
 31
0.0
  0
ARC
  8
0
  6
CONTINUOUS
 62
0
 10
1.32875686073216
 20
10.9604333961084
 30
0.0
 40
0.157503382705954
 50
179.95803997168
 51
269.935824005225
  0
LINE
  8
0
  6
CONTINUOUS
 62
0
 10
1.32877491485816
 20
10.8030273476319
 30
0.0
 11
2.78545887315271
 21
10.8030273476319
 31
0.0
  0
ARC
  8
0
  6
CONTINUOUS
 62
0
 10
2.78542836612866
 20
10.9604820892419
 30
0.0
 40
0.157552062357073
 50
269.940372488902
 51
359.918156522447
  0
LINE
  8
0
  6
CONTINUOUS
 62
0
 10
2.94288303231957
 20
10.9604515067988
 30
0.0
 11
2.94288303231957
 21
11.8266247062172
 31
0.0
  0
ARC
  8
0
  6
CONTINUOUS
 62
0
 10
1.44146625626102
 20
12.4715760771442
 30
0.0
 40
0.098402253907885
 50
359.999999999999
 51
180
  0
ARC
  8
0
  6
CONTINUOUS
 62
0
 10
1.44146625626102
 20
12.4715760771442
 30
0.0
 40
0.098402253907885
 50
179.999999999999
 51
359.999999999999
  0
ARC
  8
0
  6
CONTINUOUS
 62
0
 10
1.83517250732134
 20
12.4715760771442
 30
0.0
 40
0.0984022539078899
 50
359.999999999999
 51
180
  0
ARC
  8
0
  6
CONTINUOUS
 62
0
 10
1.83517250732134
 20
12.4715760771442
 30
0.0
 40
0.0984022539078899
 50
179.999999999999
 51
359.999999999999
  0
ARC
  8
0
  6
CONTINUOUS
 62
0
 10
2.64232380148081
 20
12.4223749501903
 30
0.0
 40
0.0984022539078899
 50
359.999999999999
 51
180
  0
ARC
  8
0
  6
CONTINUOUS
 62
0
 10
2.64232380148081
 20
12.4223749501903
 30
0.0
 40
0.0984022539078899
 50
179.999999999999
 51
359.999999999999
  0
ARC
  8
0
  6
CONTINUOUS
 62
0
 10
2.64232380148081
 20
12.9735053604175
 30
0.0
 40
0.0984022539078899
 50
359.999999999999
 51
180
  0
ARC
  8
0
  6
CONTINUOUS
 62
0
 10
2.64232380148081
 20
12.9735053604175
 30
0.0
 40
0.0984022539078899
 50
179.999999999999
 51
359.999999999999
  0
ARC
  8
0
  6
CONTINUOUS
 62
0
 10
2.81950482566726
 20
13.1310448468486
 30
0.0
 40
0.157503322653954
 50
359.993418641537
 51
89.9712026750825
  0
LINE
  8
0
  6
CONTINUOUS
 62
0
 10
2.81948675268652
 20
13.28845091418
 30
0.0
 11
2.33875479288355
 21
13.28845091418
 31
0.0
  0
ARC
  8
0
  6
CONTINUOUS
 62
0
 10
2.33872230309099
 20
13.1308606731785
 30
0.0
 40
0.157687529790922
 50
89.9528643227135
 51
112.273216749385
  0
LINE
  8
0
  6
CONTINUOUS
 62
0
 10
2.2788577687657
 20
13.2766854272997
 30
0.0
 11
1.30290577027413
 21
12.8758809899397
 31
0.0
  0
ARC
  8
0
  6
CONTINUOUS
 62
0
 10
1.36281420449632
 20
12.7302414381201
 30
0.0
 40
0.157532824067213
 50
112.313522914903
 51
179.971589046045
  0
LINE
  8
0
  6
CONTINUOUS
 62
0
 10
1.20528139979634
 20
12.7302223176531
 30
0.0
 11
1.20528139979634
 21
12.2648535555947
 31
0.0
  0
ARC
  8
0
  6
CONTINUOUS
 62
0
 10
1.36278474026596
 20
12.2648354449043
 30
0.0
 40
0.157503382705948
 50
179.958039971682
 51
269.935824005227
  0
LINE
  8
0
  6
CONTINUOUS
 62
0
 10
1.36280279439197
 20
12.1074293964278
 30
0.0
 11
2.81948675268652
 21
12.1074293964278
 31
0.0
  0
ARC
  8
0
  6
CONTINUOUS
 62
0
 10
2.81945624566247
 20
12.2648841380377
 30
0.0
 40
0.157552062357068
 50
269.9403724889
 51
359.918156522445
  0
LINE
  8
0
  6
CONTINUOUS
 62
0
 10
2.97691091185338
 20
12.2648535555947
 30
0.0
 11
2.97691091185338
 21
13.1310267550131
 31
0.0
  0
ARC
  8
0
  6
CONTINUOUS
 62
0
 10
1.41597452774691
 20
13.852793018466
 30
0.0
 40
0.098402253907885
 50
359.999999999999
 51
180
  0
ARC
  8
0
  6
CONTINUOUS
 62
0
 10
1.41597452774691
 20
13.852793018466
 30
0.0
 40
0.098402253907885
 50
179.999999999999
 51
359.999999999999
  0
ARC
  8
0
  6
CONTINUOUS
 62
0
 10
1.80968077880722
 20
13.852793018466
 30
0.0
 40
0.0984022539078901
 50
359.999999999999
 51
180
  0
ARC
  8
0
  6
CONTINUOUS
 62
0
 10
1.80968077880722
 20
13.852793018466
 30
0.0
 40
0.0984022539078901
 50
179.999999999999
 51
359.999999999999
  0
ARC
  8
0
  6
CONTINUOUS
 62
0
 10
2.61683207296669
 20
13.8035918915121
 30
0.0
 40
0.0984022539078904
 50
359.999999999999
 51
180
  0
ARC
  8
0
  6
CONTINUOUS
 62
0
 10
2.61683207296669
 20
13.8035918915121
 30
0.0
 40
0.0984022539078904
 50
179.999999999999
 51
359.999999999999
  0
ARC
  8
0
  6
CONTINUOUS
 62
0
 10
2.61683207296669
 20
14.3547223017393
 30
0.0
 40
0.0984022539078904
 50
359.999999999999
 51
180
  0
ARC
  8
0
  6
CONTINUOUS
 62
0
 10
2.61683207296669
 20
14.3547223017393
 30
0.0
 40
0.0984022539078904
 50
179.999999999999
 51
359.999999999999
  0
ARC
  8
0
  6
CONTINUOUS
 62
0
 10
2.79401309715315
 20
14.5122617881705
 30
0.0
 40
0.157503322653954
 50
359.993418641537
 51
89.9712026750825
  0
LINE
  8
0
  6
CONTINUOUS
 62
0
 10
2.7939950241724
 20
14.6696678555018
 30
0.0
 11
2.31326306436943
 21
14.6696678555018
 31
0.0
  0
ARC
  8
0
  6
CONTINUOUS
 62
0
 10
2.31323057457688
 20
14.5120776145004
 30
0.0
 40
0.157687529790922
 50
89.9528643227135
 51
112.273216749385
  0
LINE
  8
0
  6
CONTINUOUS
 62
0
 10
2.25336604025158
 20
14.6579023686215
 30
0.0
 11
1.27741404176001
 21
14.2570979312615
 31
0.0
  0
ARC
  8
0
  6
CONTINUOUS
 62
0
 10
1.33732247598221
 20
14.1114583794419
 30
0.0
 40
0.157532824067213
 50
112.313522914903
 51
179.971589046045
  0
LINE
  8
0
  6
CONTINUOUS
 62
0
 10
1.17978967128222
 20
14.1114392589749
 30
0.0
 11
1.17978967128222
 21
13.6460704969165
 31
0.0
  0
ARC
  8
0
  6
CONTINUOUS
 62
0
 10
1.33729301175185
 20
13.6460523862261
 30
0.0
 40
0.157503382705949
 50
179.958039971682
 51
269.935824005227
  0
LINE
  8
0
  6
CONTINUOUS
 62
0
 10
1.33731106587785
 20
13.4886463377496
 30
0.0
 11
2.7939950241724
 21
13.4886463377496
 31
0.0
  0
ARC
  8
0
  6
CONTINUOUS
 62
0
 10
2.79396451714836
 20
13.6461010793596
 30
0.0
 40
0.157552062357068
 50
269.9403724889
 51
359.918156522445
  0
LINE
  8
0
  6
CONTINUOUS
 62
0
 10
2.95141918333926
 20
13.6460704969165
 30
0.0
 11
2.95141918333926
 21
14.5122436963349
 31
0.0
  0
ARC
  8
0
  6
CONTINUOUS
 62
0
 10
3.4714718911309
 20
13.9654927569511
 30
0.0
 40
0.098402253907885
 50
359.999999999999
 51
180
  0
ARC
  8
0
  6
CONTINUOUS
 62
0
 10
3.4714718911309
 20
13.9654927569511
 30
0.0
 40
0.098402253907885
 50
179.999999999999
 51
359.999999999999
  0
ARC
  8
0
  6
CONTINUOUS
 62
0
 10
3.86517814219122
 20
13.9654927569511
 30
0.0
 40
0.0984022539078899
 50
359.999999999999
 51
180
  0
ARC
  8
0
  6
CONTINUOUS
 62
0
 10
3.86517814219122
 20
13.9654927569511
 30
0.0
 40
0.0984022539078899
 50
179.999999999999
 51
359.999999999999
  0
ARC
  8
0
  6
CONTINUOUS
 62
0
 10
4.67232943635069
 20
13.9162916299972
 30
0.0
 40
0.0984022539078899
 50
359.999999999999
 51
180
  0
ARC
  8
0
  6
CONTINUOUS
 62
0
 10
4.67232943635069
 20
13.9162916299972
 30
0.0
 40
0.0984022539078899
 50
179.999999999999
 51
359.999999999999
  0
ARC
  8
0
  6
CONTINUOUS
 62
0
 10
4.67232943635069
 20
14.4674220402244
 30
0.0
 40
0.0984022539078899
 50
359.999999999999
 51
180
  0
ARC
  8
0
  6
CONTINUOUS
 62
0
 10
4.67232943635069
 20
14.4674220402244
 30
0.0
 40
0.0984022539078899
 50
179.999999999999
 51
359.999999999999
  0
ARC
  8
0
  6
CONTINUOUS
 62
0
 10
4.84951046053715
 20
14.6249615266556
 30
0.0
 40
0.157503322653954
 50
359.993418641537
 51
89.9712026750824
  0
LINE
  8
0
  6
CONTINUOUS
 62
0
 10
4.8494923875564
 20
14.7823675939869
 30
0.0
 11
4.36876042775343
 21
14.7823675939869
 31
0.0
  0
ARC
  8
0
  6
CONTINUOUS
 62
0
 10
4.36872793796087
 20
14.6247773529855
 30
0.0
 40
0.157687529790923
 50
89.9528643227134
 51
112.273216749384
  0
LINE
  8
0
  6
CONTINUOUS
 62
0
 10
4.30886340363558
 20
14.7706021071066
 30
0.0
 11
3.33291140514401
 21
14.3697976697466
 31
0.0
  0
ARC
  8
0
  6
CONTINUOUS
 62
0
 10
3.39281983936621
 20
14.224158117927
 30
0.0
 40
0.157532824067213
 50
112.313522914903
 51
179.971589046045
  0
LINE
  8
0
  6
CONTINUOUS
 62
0
 10
3.23528703466622
 20
14.22413899746
 30
0.0
 11
3.23528703466622
 21
13.7587702354016
 31
0.0
  0
ARC
  8
0
  6
CONTINUOUS
 62
0
 10
3.39279037513584
 20
13.7587521247112
 30
0.0
 40
0.157503382705948
 50
179.958039971682
 51
269.935824005227
  0
LINE
  8
0
  6
CONTINUOUS
 62
0
 10
3.39280842926185
 20
13.6013460762347
 30
0.0
 11
4.8494923875564
 21
13.6013460762347
 31
0.0
  0
ARC
  8
0
  6
CONTINUOUS
 62
0
 10
4.84946188053235
 20
13.7588008178447
 30
0.0
 40
0.157552062357067
 50
269.9403724889
 51
359.918156522445
  0
LINE
  8
0
  6
CONTINUOUS
 62
0
 10
5.00691654672326
 20
13.7587702354016
 30
0.0
 11
5.00691654672326
 21
14.62494343482
 31
0.0
  0
ARC
  8
0
  6
CONTINUOUS
 62
0
 10
3.41427286330056
 20
12.6123175587669
 30
0.0
 40
0.098402253907885
 50
359.999999999999
 51
180
  0
ARC
  8
0
  6
CONTINUOUS
 62
0
 10
3.41427286330056
 20
12.6123175587669
 30
0.0
 40
0.098402253907885
 50
179.999999999999
 51
359.999999999999
  0
ARC
  8
0
  6
CONTINUOUS
 62
0
 10
3.80797911436087
 20
12.6123175587669
 30
0.0
 40
0.0984022539078901
 50
359.999999999999
 51
180
  0
ARC
  8
0
  6
CONTINUOUS
 62
0
 10
3.80797911436087
 20
12.6123175587669
 30
0.0
 40
0.0984022539078901
 50
179.999999999999
 51
359.999999999999
  0
ARC
  8
0
  6
CONTINUOUS
 62
0
 10
4.61513040852034
 20
12.563116431813
 30
0.0
 40
0.0984022539078899
 50
359.999999999999
 51
180
  0
ARC
  8
0
  6
CONTINUOUS
 62
0
 10
4.61513040852034
 20
12.563116431813
 30
0.0
 40
0.0984022539078899
 50
179.999999999999
 51
359.999999999999
  0
ARC
  8
0
  6
CONTINUOUS
 62
0
 10
4.61513040852034
 20
13.1142468420402
 30
0.0
 40
0.0984022539078899
 50
359.999999999999
 51
180
  0
ARC
  8
0
  6
CONTINUOUS
 62
0
 10
4.61513040852034
 20
13.1142468420402
 30
0.0
 40
0.0984022539078899
 50
179.999999999999
 51
359.999999999999
  0
ARC
  8
0
  6
CONTINUOUS
 62
0
 10
4.7923114327068
 20
13.2717863284714
 30
0.0
 40
0.157503322653954
 50
359.993418641537
 51
89.9712026750825
  0
LINE
  8
0
  6
CONTINUOUS
 62
0
 10
4.79229335972605
 20
13.4291923958027
 30
0.0
 11
4.31156139992308
 21
13.4291923958027
 31
0.0
  0
ARC
  8
0
  6
CONTINUOUS
 62
0
 10
4.31152891013052
 20
13.2716021548013
 30
0.0
 40
0.157687529790923
 50
89.9528643227134
 51
112.273216749384
  0
LINE
  8
0
  6
CONTINUOUS
 62
0
 10
4.25166437580523
 20
13.4174269089224
 30
0.0
 11
3.27571237731366
 21
13.0166224715624
 31
0.0
  0
ARC
  8
0
  6
CONTINUOUS
 62
0
 10
3.33562081153586
 20
12.8709829197429
 30
0.0
 40
0.157532824067213
 50
112.313522914903
 51
179.971589046045
  0
LINE
  8
0
  6
CONTINUOUS
 62
0
 10
3.17808800683587
 20
12.8709637992758
 30
0.0
 11
3.17808800683587
 21
12.4055950372174
 31
0.0
  0
ARC
  8
0
  6
CONTINUOUS
 62
0
 10
3.33559134730549
 20
12.405576926527
 30
0.0
 40
0.157503382705949
 50
179.958039971682
 51
269.935824005227
  0
LINE
  8
0
  6
CONTINUOUS
 62
0
 10
3.3356094014315
 20
12.2481708780505
 30
0.0
 11
4.79229335972605
 21
12.2481708780505
 31
0.0
  0
ARC
  8
0
  6
CONTINUOUS
 62
0
 10
4.792262852702
 20
12.4056256196605
 30
0.0
 40
0.157552062357068
 50
269.9403724889
 51
359.918156522445
  0
LINE
  8
0
  6
CONTINUOUS
 62
0
 10
4.94971751889291
 20
12.4055950372174
 30
0.0
 11
4.94971751889291
 21
13.2717682366358
 31
0.0
  0
ARC
  8
0
  6
CONTINUOUS
 62
0
 10
3.3670414351103
 20
11.2268623318527
 30
0.0
 40
0.098402253907885
 50
359.999999999999
 51
180
  0
ARC
  8
0
  6
CONTINUOUS
 62
0
 10
3.3670414351103
 20
11.2268623318527
 30
0.0
 40
0.098402253907885
 50
179.999999999999
 51
359.999999999999
  0
ARC
  8
0
  6
CONTINUOUS
 62
0
 10
3.76074768617061
 20
11.2268623318527
 30
0.0
 40
0.0984022539078901
 50
359.999999999999
 51
180
  0
ARC
  8
0
  6
CONTINUOUS
 62
0
 10
3.76074768617061
 20
11.2268623318527
 30
0.0
 40
0.0984022539078901
 50
179.999999999999
 51
359.999999999999
  0
ARC
  8
0
  6
CONTINUOUS
 62
0
 10
4.56789898033008
 20
11.1776612048988
 30
0.0
 40
0.0984022539078899
 50
359.999999999999
 51
180
  0
ARC
  8
0
  6
CONTINUOUS
 62
0
 10
4.56789898033008
 20
11.1776612048988
 30
0.0
 40
0.0984022539078899
 50
179.999999999999
 51
359.999999999999
  0
ARC
  8
0
  6
CONTINUOUS
 62
0
 10
4.56789898033008
 20
11.728791615126
 30
0.0
 40
0.0984022539078899
 50
359.999999999999
 51
180
  0
ARC
  8
0
  6
CONTINUOUS
 62
0
 10
4.56789898033008
 20
11.7287916151259
 30
0.0
 40
0.0984022539078899
 50
179.999999999999
 51
359.999999999999
  0
ARC
  8
0
  6
CONTINUOUS
 62
0
 10
4.74508000451654
 20
11.8863311015571
 30
0.0
 40
0.157503322653954
 50
359.993418641537
 51
89.9712026750825
  0
LINE
  8
0
  6
CONTINUOUS
 62
0
 10
4.74506193153579
 20
12.0437371688885
 30
0.0
 11
4.26432997173282
 21
12.0437371688885
 31
0.0
  0
ARC
  8
0
  6
CONTINUOUS
 62
0
 10
4.26429748194026
 20
11.886146927887
 30
0.0
 40
0.157687529790923
 50
89.9528643227134
 51
112.273216749384
  0
LINE
  8
0
  6
CONTINUOUS
 62
0
 10
4.20443294761497
 20
12.0319716820082
 30
0.0
 11
3.2284809491234
 21
11.6311672446482
 31
0.0
  0
ARC
  8
0
  6
CONTINUOUS
 62
0
 10
3.2883893833456
 20
11.4855276928286
 30
0.0
 40
0.157532824067213
 50
112.313522914903
 51
179.971589046045
  0
LINE
  8
0
  6
CONTINUOUS
 62
0
 10
3.13085657864561
 20
11.4855085723616
 30
0.0
 11
3.13085657864561
 21
11.0201398103032
 31
0.0
  0
ARC
  8
0
  6
CONTINUOUS
 62
0
 10
3.28835991911523
 20
11.0201216996127
 30
0.0
 40
0.157503382705949
 50
179.958039971682
 51
269.935824005227
  0
LINE
  8
0
  6
CONTINUOUS
 62
0
 10
3.28837797324124
 20
10.8627156511363
 30
0.0
 11
4.74506193153579
 21
10.8627156511363
 31
0.0
  0
ARC
  8
0
  6
CONTINUOUS
 62
0
 10
4.74503142451174
 20
11.0201703927462
 30
0.0
 40
0.157552062357068
 50
269.9403724889
 51
359.918156522445
  0
LINE
  8
0
  6
CONTINUOUS
 62
0
 10
4.90248609070265
 20
11.0201398103032
 30
0.0
 11
4.90248609070265
 21
11.8863130097216
 31
0.0
  0
ARC
  8
0
  6
CONTINUOUS
 62
0
 10
3.27257857872978
 20
9.84140710493836
 30
0.0
 40
0.098402253907885
 50
359.999999999999
 51
180
  0
ARC
  8
0
  6
CONTINUOUS
 62
0
 10
3.27257857872978
 20
9.84140710493836
 30
0.0
 40
0.098402253907885
 50
179.999999999999
 51
359.999999999999
  0
ARC
  8
0
  6
CONTINUOUS
 62
0
 10
3.66628482979009
 20
9.84140710493836
 30
0.0
 40
0.0984022539078901
 50
359.999999999999
 51
180
  0
ARC
  8
0
  6
CONTINUOUS
 62
0
 10
3.66628482979009
 20
9.84140710493836
 30
0.0
 40
0.0984022539078901
 50
179.999999999999
 51
359.999999999999
  0
ARC
  8
0
  6
CONTINUOUS
 62
0
 10
4.47343612394956
 20
9.79220597798446
 30
0.0
 40
0.0984022539078899
 50
359.999999999999
 51
180
  0
ARC
  8
0
  6
CONTINUOUS
 62
0
 10
4.47343612394956
 20
9.79220597798446
 30
0.0
 40
0.0984022539078899
 50
179.999999999999
 51
359.999999999999
  0
ARC
  8
0
  6
CONTINUOUS
 62
0
 10
4.47343612394956
 20
10.3433363882117
 30
0.0
 40
0.0984022539078899
 50
359.999999999999
 51
180
  0
ARC
  8
0
  6
CONTINUOUS
 62
0
 10
4.47343612394956
 20
10.3433363882117
 30
0.0
 40
0.0984022539078899
 50
179.999999999999
 51
359.999999999999
  0
ARC
  8
0
  6
CONTINUOUS
 62
0
 10
4.65061714813602
 20
10.5008758746429
 30
0.0
 40
0.157503322653954
 50
359.993418641537
 51
89.9712026750825
  0
LINE
  8
0
  6
CONTINUOUS
 62
0
 10
4.65059907515527
 20
10.6582819419742
 30
0.0
 11
4.1698671153523
 21
10.6582819419742
 31
0.0
  0
ARC
  8
0
  6
CONTINUOUS
 62
0
 10
4.16983462555974
 20
10.5006917009727
 30
0.0
 40
0.157687529790923
 50
89.9528643227134
 51
112.273216749384
  0
LINE
  8
0
  6
CONTINUOUS
 62
0
 10
4.10997009123445
 20
10.6465164550939
 30
0.0
 11
3.13401809274288
 21
10.2457120177339
 31
0.0
  0
ARC
  8
0
  6
CONTINUOUS
 62
0
 10
3.19392652696508
 20
10.1000724659143
 30
0.0
 40
0.157532824067213
 50
112.313522914903
 51
179.971589046045
  0
LINE
  8
0
  6
CONTINUOUS
 62
0
 10
3.03639372226509
 20
10.1000533454473
 30
0.0
 11
3.03639372226509
 21
9.63468458338886
 31
0.0
  0
ARC
  8
0
  6
CONTINUOUS
 62
0
 10
3.19389706273471
 20
9.63466647269846
 30
0.0
 40
0.157503382705949
 50
179.958039971682
 51
269.935824005227
  0
LINE
  8
0
  6
CONTINUOUS
 62
0
 10
3.19391511686072
 20
9.47726042422196
 30
0.0
 11
4.65059907515527
 21
9.47726042422196
 31
0.0
  0
ARC
  8
0
  6
CONTINUOUS
 62
0
 10
4.65056856813122
 20
9.63471516583193
 30
0.0
 40
0.157552062357068
 50
269.9403724889
 51
359.918156522445
  0
LINE
  8
0
  6
CONTINUOUS
 62
0
 10
4.80802323432213
 20
9.63468458338886
 30
0.0
 11
4.80802323432213
 21
10.5008577828073
 31
0.0
  0
ARC
  8
0
  6
CONTINUOUS
 62
0
 10
3.30905495038777
 20
8.47578216011706
 30
0.0
 40
0.098402253907885
 50
359.999999999999
 51
180
  0
ARC
  8
0
  6
CONTINUOUS
 62
0
 10
3.30905495038777
 20
8.47578216011706
 30
0.0
 40
0.098402253907885
 50
179.999999999999
 51
359.999999999999
  0
ARC
  8
0
  6
CONTINUOUS
 62
0
 10
3.70276120144809
 20
8.47578216011706
 30
0.0
 40
0.0984022539078901
 50
359.999999999999
 51
180
  0
ARC
  8
0
  6
CONTINUOUS
 62
0
 10
3.70276120144809
 20
8.47578216011706
 30
0.0
 40
0.0984022539078901
 50
179.999999999999
 51
359.999999999999
  0
ARC
  8
0
  6
CONTINUOUS
 62
0
 10
4.50991249560756
 20
8.42658103316316
 30
0.0
 40
0.0984022539078899
 50
359.999999999999
 51
180
  0
ARC
  8
0
  6
CONTINUOUS
 62
0
 10
4.50991249560756
 20
8.42658103316316
 30
0.0
 40
0.0984022539078899
 50
179.999999999999
 51
359.999999999999
  0
ARC
  8
0
  6
CONTINUOUS
 62
0
 10
4.50991249560756
 20
8.97771144339036
 30
0.0
 40
0.0984022539078899
 50
359.999999999999
 51
180
  0
ARC
  8
0
  6
CONTINUOUS
 62
0
 10
4.50991249560756
 20
8.97771144339035
 30
0.0
 40
0.0984022539078899
 50
179.999999999999
 51
359.999999999999
  0
ARC
  8
0
  6
CONTINUOUS
 62
0
 10
4.68709351979401
 20
9.13525092982155
 30
0.0
 40
0.157503322653954
 50
359.993418641537
 51
89.9712026750825
  0
LINE
  8
0
  6
CONTINUOUS
 62
0
 10
4.68707544681327
 20
9.29265699715286
 30
0.0
 11
4.2063434870103
 21
9.29265699715286
 31
0.0
  0
ARC
  8
0
  6
CONTINUOUS
 62
0
 10
4.20631099721774
 20
9.13506675615144
 30
0.0
 40
0.157687529790923
 50
89.9528643227134
 51
112.273216749384
  0
LINE
  8
0
  6
CONTINUOUS
 62
0
 10
4.14644646289245
 20
9.28089151027256
 30
0.0
 11
3.17049446440088
 21
8.88008707291256
 31
0.0
  0
ARC
  8
0
  6
CONTINUOUS
 62
0
 10
3.23040289862307
 20
8.73444752109296
 30
0.0
 40
0.157532824067213
 50
112.313522914903
 51
179.971589046045
  0
LINE
  8
0
  6
CONTINUOUS
 62
0
 10
3.07287009392309
 20
8.73442840062596
 30
0.0
 11
3.07287009392309
 21
8.26905963856756
 31
0.0
  0
ARC
  8
0
  6
CONTINUOUS
 62
0
 10
3.23037343439271
 20
8.26904152787715
 30
0.0
 40
0.157503382705949
 50
179.958039971682
 51
269.935824005227
  0
LINE
  8
0
  6
CONTINUOUS
 62
0
 10
3.23039148851872
 20
8.11163547940066
 30
0.0
 11
4.68707544681327
 21
8.11163547940066
 31
0.0
  0
ARC
  8
0
  6
CONTINUOUS
 62
0
 10
4.68704493978922
 20
8.26909022101063
 30
0.0
 40
0.157552062357068
 50
269.9403724889
 51
359.918156522445
  0
LINE
  8
0
  6
CONTINUOUS
 62
0
 10
4.84449960598013
 20
8.26905963856756
 30
0.0
 11
4.84449960598013
 21
9.13523283798596
 31
0.0
  0
ARC
  8
0
  6
CONTINUOUS
 62
0
 10
3.2858492603737
 20
7.16183168209973
 30
0.0
 40
0.098402253907885
 50
359.999999999999
 51
180
  0
ARC
  8
0
  6
CONTINUOUS
 62
0
 10
3.2858492603737
 20
7.16183168209972
 30
0.0
 40
0.098402253907885
 50
179.999999999999
 51
359.999999999999
  0
ARC
  8
0
  6
CONTINUOUS
 62
0
 10
3.67955551143402
 20
7.16183168209973
 30
0.0
 40
0.0984022539078899
 50
359.999999999999
 51
180
  0
ARC
  8
0
  6
CONTINUOUS
 62
0
 10
3.67955551143402
 20
7.16183168209972
 30
0.0
 40
0.0984022539078899
 50
179.999999999999
 51
359.999999999999
  0
ARC
  8
0
  6
CONTINUOUS
 62
0
 10
4.48670680559349
 20
7.11263055514583
 30
0.0
 40
0.0984022539078899
 50
359.999999999999
 51
180
  0
ARC
  8
0
  6
CONTINUOUS
 62
0
 10
4.48670680559349
 20
7.11263055514582
 30
0.0
 40
0.0984022539078899
 50
179.999999999999
 51
359.999999999999
  0
ARC
  8
0
  6
CONTINUOUS
 62
0
 10
4.48670680559349
 20
7.66376096537302
 30
0.0
 40
0.0984022539078899
 50
359.999999999999
 51
180
  0
ARC
  8
0
  6
CONTINUOUS
 62
0
 10
4.48670680559349
 20
7.66376096537302
 30
0.0
 40
0.0984022539078899
 50
179.999999999999
 51
359.999999999999
  0
ARC
  8
0
  6
CONTINUOUS
 62
0
 10
4.66388782977995
 20
7.82130045180422
 30
0.0
 40
0.157503322653954
 50
359.993418641537
 51
89.9712026750824
  0
LINE
  8
0
  6
CONTINUOUS
 62
0
 10
4.6638697567992
 20
7.97870651913552
 30
0.0
 11
4.18313779699623
 21
7.97870651913552
 31
0.0
  0
ARC
  8
0
  6
CONTINUOUS
 62
0
 10
4.18310530720367
 20
7.82111627813411
 30
0.0
 40
0.157687529790923
 50
89.9528643227134
 51
112.273216749384
  0
LINE
  8
0
  6
CONTINUOUS
 62
0
 10
4.12324077287838
 20
7.96694103225522
 30
0.0
 11
3.14728877438681
 21
7.56613659489522
 31
0.0
  0
ARC
  8
0
  6
CONTINUOUS
 62
0
 10
3.207197208609
 20
7.42049704307563
 30
0.0
 40
0.157532824067213
 50
112.313522914903
 51
179.971589046045
  0
LINE
  8
0
  6
CONTINUOUS
 62
0
 10
3.04966440390902
 20
7.42047792260862
 30
0.0
 11
3.04966440390902
 21
6.95510916055022
 31
0.0
  0
ARC
  8
0
  6
CONTINUOUS
 62
0
 10
3.20716774437864
 20
6.95509104985982
 30
0.0
 40
0.157503382705948
 50
179.958039971682
 51
269.935824005227
  0
LINE
  8
0
  6
CONTINUOUS
 62
0
 10
3.20718579850465
 20
6.79768500138332
 30
0.0
 11
4.6638697567992
 21
6.79768500138332
 31
0.0
  0
ARC
  8
0
  6
CONTINUOUS
 62
0
 10
4.66383924977515
 20
6.9551397429933
 30
0.0
 40
0.157552062357067
 50
269.9403724889
 51
359.918156522445
  0
LINE
  8
0
  6
CONTINUOUS
 62
0
 10
4.82129391596606
 20
6.95510916055022
 30
0.0
 11
4.82129391596606
 21
7.82128235996862
 31
0.0
  0
ARC
  8
0
  6
CONTINUOUS
 62
0
 10
3.25446193274342
 20
5.87363286652016
 30
0.0
 40
0.098402253907885
 50
359.999999999999
 51
180
  0
ARC
  8
0
  6
CONTINUOUS
 62
0
 10
3.25446193274342
 20
5.87363286652016
 30
0.0
 40
0.098402253907885
 50
179.999999999999
 51
359.999999999999
  0
ARC
  8
0
  6
CONTINUOUS
 62
0
 10
3.64816818380374
 20
5.87363286652016
 30
0.0
 40
0.0984022539078901
 50
359.999999999999
 51
180
  0
ARC
  8
0
  6
CONTINUOUS
 62
0
 10
3.64816818380374
 20
5.87363286652016
 30
0.0
 40
0.0984022539078901
 50
179.999999999999
 51
359.999999999999
  0
ARC
  8
0
  6
CONTINUOUS
 62
0
 10
4.45531947796321
 20
5.82443173956626
 30
0.0
 40
0.0984022539078904
 50
359.999999999999
 51
180
  0
ARC
  8
0
  6
CONTINUOUS
 62
0
 10
4.45531947796321
 20
5.82443173956626
 30
0.0
 40
0.0984022539078904
 50
179.999999999999
 51
359.999999999999
  0
ARC
  8
0
  6
CONTINUOUS
 62
0
 10
4.45531947796321
 20
6.37556214979346
 30
0.0
 40
0.0984022539078904
 50
359.999999999999
 51
180
  0
ARC
  8
0
  6
CONTINUOUS
 62
0
 10
4.45531947796321
 20
6.37556214979346
 30
0.0
 40
0.0984022539078904
 50
179.999999999999
 51
359.999999999999
  0
ARC
  8
0
  6
CONTINUOUS
 62
0
 10
4.63250050214967
 20
6.53310163622465
 30
0.0
 40
0.157503322653954
 50
359.993418641537
 51
89.9712026750825
  0
LINE
  8
0
  6
CONTINUOUS
 62
0
 10
4.63248242916892
 20
6.69050770355596
 30
0.0
 11
4.15175046936595
 21
6.69050770355596
 31
0.0
  0
ARC
  8
0
  6
CONTINUOUS
 62
0
 10
4.15171797957339
 20
6.53291746255454
 30
0.0
 40
0.157687529790921
 50
89.9528643227136
 51
112.273216749385
  0
LINE
  8
0
  6
CONTINUOUS
 62
0
 10
4.0918534452481
 20
6.67874221667566
 30
0.0
 11
3.11590144675653
 21
6.27793777931566
 31
0.0
  0
ARC
  8
0
  6
CONTINUOUS
 62
0
 10
3.17580988097873
 20
6.13229822749607
 30
0.0
 40
0.157532824067214
 50
112.313522914903
 51
179.971589046045
  0
LINE
  8
0
  6
CONTINUOUS
 62
0
 10
3.01827707627874
 20
6.13227910702906
 30
0.0
 11
3.01827707627874
 21
5.66691034497066
 31
0.0
  0
ARC
  8
0
  6
CONTINUOUS
 62
0
 10
3.17578041674836
 20
5.66689223428026
 30
0.0
 40
0.157503382705949
 50
179.958039971682
 51
269.935824005227
  0
LINE
  8
0
  6
CONTINUOUS
 62
0
 10
3.17579847087437
 20
5.50948618580376
 30
0.0
 11
4.63248242916892
 21
5.50948618580376
 31
0.0
  0
ARC
  8
0
  6
CONTINUOUS
 62
0
 10
4.63245192214487
 20
5.66694092741373
 30
0.0
 40
0.157552062357068
 50
269.9403724889
 51
359.918156522445
  0
LINE
  8
0
  6
CONTINUOUS
 62
0
 10
4.78990658833578
 20
5.66691034497066
 30
0.0
 11
4.78990658833578
 21
6.53308354438906
 31
0.0
  0
ARC
  8
0
  6
CONTINUOUS
 62
0
 10
3.2552996203581
 20
4.5759581413163
 30
0.0
 40
0.0984022539078848
 50
359.999999999999
 51
180
  0
ARC
  8
0
  6
CONTINUOUS
 62
0
 10
3.2552996203581
 20
4.5759581413163
 30
0.0
 40
0.0984022539078848
 50
179.999999999999
 51
359.999999999999
  0
ARC
  8
0
  6
CONTINUOUS
 62
0
 10
3.64900587141842
 20
4.5759581413163
 30
0.0
 40
0.0984022539078899
 50
359.999999999999
 51
180
  0
ARC
  8
0
  6
CONTINUOUS
 62
0
 10
3.64900587141842
 20
4.5759581413163
 30
0.0
 40
0.0984022539078899
 50
179.999999999999
 51
359.999999999999
  0
ARC
  8
0
  6
CONTINUOUS
 62
0
 10
4.45615716557789
 20
4.5267570143624
 30
0.0
 40
0.0984022539078899
 50
359.999999999999
 51
180
  0
ARC
  8
0
  6
CONTINUOUS
 62
0
 10
4.45615716557789
 20
4.5267570143624
 30
0.0
 40
0.0984022539078899
 50
179.999999999999
 51
359.999999999999
  0
ARC
  8
0
  6
CONTINUOUS
 62
0
 10
4.45615716557789
 20
5.0778874245896
 30
0.0
 40
0.0984022539078899
 50
359.999999999999
 51
180
  0
ARC
  8
0
  6
CONTINUOUS
 62
0
 10
4.45615716557789
 20
5.0778874245896
 30
0.0
 40
0.0984022539078899
 50
179.999999999999
 51
359.999999999999
  0
ARC
  8
0
  6
CONTINUOUS
 62
0
 10
4.63333818976435
 20
5.2354269110208
 30
0.0
 40
0.157503322653954
 50
359.993418641538
 51
89.9712026750829
  0
LINE
  8
0
  6
CONTINUOUS
 62
0
 10
4.6333201167836
 20
5.3928329783521
 30
0.0
 11
4.15258815698063
 21
5.3928329783521
 31
0.0
  0
ARC
  8
0
  6
CONTINUOUS
 62
0
 10
4.15255566718807
 20
5.23524273735069
 30
0.0
 40
0.157687529790921
 50
89.9528643227136
 51
112.273216749385
  0
LINE
  8
0
  6
CONTINUOUS
 62
0
 10
4.09269113286278
 20
5.3810674914718
 30
0.0
 11
3.11673913437121
 21
4.9802630541118
 31
0.0
  0
ARC
  8
0
  6
CONTINUOUS
 62
0
 10
3.1766475685934
 20
4.83462350229221
 30
0.0
 40
0.157532824067212
 50
112.313522914903
 51
179.971589046045
  0
LINE
  8
0
  6
CONTINUOUS
 62
0
 10
3.01911476389342
 20
4.8346043818252
 30
0.0
 11
3.01911476389342
 21
4.3692356197668
 31
0.0
  0
ARC
  8
0
  6
CONTINUOUS
 62
0
 10
3.17661810436304
 20
4.3692175090764
 30
0.0
 40
0.157503382705949
 50
179.958039971682
 51
269.935824005227
  0
LINE
  8
0
  6
CONTINUOUS
 62
0
 10
3.17663615848905
 20
4.2118114605999
 30
0.0
 11
4.6333201167836
 21
4.2118114605999
 31
0.0
  0
ARC
  8
0
  6
CONTINUOUS
 62
0
 10
4.63328960975955
 20
4.36926620220988
 30
0.0
 40
0.157552062357068
 50
269.9403724889
 51
359.918156522445
  0
LINE
  8
0
  6
CONTINUOUS
 62
0
 10
4.79074427595046
 20
4.3692356197668
 30
0.0
 11
4.79074427595046
 21
5.2354088191852
 31
0.0
  0
ARC
  8
0
  6
CONTINUOUS
 62
0
 10
3.18821668195878
 20
3.28058595780076
 30
0.0
 40
0.098402253907885
 50
359.999999999999
 51
180
  0
ARC
  8
0
  6
CONTINUOUS
 62
0
 10
3.18821668195878
 20
3.28058595780076
 30
0.0
 40
0.098402253907885
 50
179.999999999999
 51
359.999999999999
  0
ARC
  8
0
  6
CONTINUOUS
 62
0
 10
3.58192293301909
 20
3.28058595780076
 30
0.0
 40
0.0984022539078899
 50
359.999999999999
 51
180
  0
ARC
  8
0
  6
CONTINUOUS
 62
0
 10
3.58192293301909
 20
3.28058595780076
 30
0.0
 40
0.0984022539078899
 50
179.999999999999
 51
359.999999999999
  0
ARC
  8
0
  6
CONTINUOUS
 62
0
 10
4.38907422717856
 20
3.23138483084686
 30
0.0
 40
0.0984022539078904
 50
359.999999999999
 51
180
  0
ARC
  8
0
  6
CONTINUOUS
 62
0
 10
4.38907422717856
 20
3.23138483084686
 30
0.0
 40
0.0984022539078904
 50
179.999999999999
 51
359.999999999999
  0
ARC
  8
0
  6
CONTINUOUS
 62
0
 10
4.38907422717856
 20
3.78251524107406
 30
0.0
 40
0.0984022539078904
 50
359.999999999999
 51
180
  0
ARC
  8
0
  6
CONTINUOUS
 62
0
 10
4.38907422717856
 20
3.78251524107406
 30
0.0
 40
0.0984022539078904
 50
179.999999999999
 51
359.999999999999
  0
ARC
  8
0
  6
CONTINUOUS
 62
0
 10
4.56625525136502
 20
3.94005472750525
 30
0.0
 40
0.157503322653954
 50
359.993418641538
 51
89.9712026750829
  0
LINE
  8
0
  6
CONTINUOUS
 62
0
 10
4.56623717838427
 20
4.09746079483656
 30
0.0
 11
4.0855052185813
 21
4.09746079483656
 31
0.0
  0
ARC
  8
0
  6
CONTINUOUS
 62
0
 10
4.08547272878875
 20
3.93987055383514
 30
0.0
 40
0.157687529790921
 50
89.9528643227136
 51
112.273216749385
  0
LINE
  8
0
  6
CONTINUOUS
 62
0
 10
4.02560819446345
 20
4.08569530795626
 30
0.0
 11
3.04965619597188
 21
3.68489087059626
 31
0.0
  0
ARC
  8
0
  6
CONTINUOUS
 62
0
 10
3.10956463019408
 20
3.53925131877666
 30
0.0
 40
0.157532824067212
 50
112.313522914903
 51
179.971589046045
  0
LINE
  8
0
  6
CONTINUOUS
 62
0
 10
2.95203182549409
 20
3.53923219830966
 30
0.0
 11
2.95203182549409
 21
3.07386343625126
 31
0.0
  0
ARC
  8
0
  6
CONTINUOUS
 62
0
 10
3.10953516596371
 20
3.07384532556086
 30
0.0
 40
0.157503382705948
 50
179.958039971682
 51
269.935824005227
  0
LINE
  8
0
  6
CONTINUOUS
 62
0
 10
3.10955322008972
 20
2.91643927708436
 30
0.0
 11
4.56623717838427
 21
2.91643927708436
 31
0.0
  0
ARC
  8
0
  6
CONTINUOUS
 62
0
 10
4.56620667136023
 20
3.07389401869433
 30
0.0
 40
0.157552062357068
 50
269.940372488899
 51
359.918156522444
  0
LINE
  8
0
  6
CONTINUOUS
 62
0
 10
4.72366133755113
 20
3.07386343625126
 30
0.0
 11
4.72366133755113
 21
3.94003663566966
 31
0.0
  0
ARC
  8
0
  6
CONTINUOUS
 62
0
 10
3.18661280999551
 20
1.92348865943618
 30
0.0
 40
0.098402253907885
 50
359.999999999999
 51
180
  0
ARC
  8
0
  6
CONTINUOUS
 62
0
 10
3.18661280999551
 20
1.92348865943617
 30
0.0
 40
0.098402253907885
 50
179.999999999999
 51
359.999999999999
  0
ARC
  8
0
  6
CONTINUOUS
 62
0
 10
3.58031906105583
 20
1.92348865943618
 30
0.0
 40
0.0984022539078899
 50
359.999999999999
 51
180
  0
ARC
  8
0
  6
CONTINUOUS
 62
0
 10
3.58031906105583
 20
1.92348865943617
 30
0.0
 40
0.0984022539078899
 50
179.999999999999
 51
359.999999999999
  0
ARC
  8
0
  6
CONTINUOUS
 62
0
 10
4.3874703552153
 20
1.87428753248228
 30
0.0
 40
0.0984022539078899
 50
359.999999999999
 51
180
  0
ARC
  8
0
  6
CONTINUOUS
 62
0
 10
4.3874703552153
 20
1.87428753248227
 30
0.0
 40
0.0984022539078899
 50
179.999999999999
 51
359.999999999999
  0
ARC
  8
0
  6
CONTINUOUS
 62
0
 10
4.3874703552153
 20
2.42541794270948
 30
0.0
 40
0.0984022539078899
 50
359.999999999999
 51
180
  0
ARC
  8
0
  6
CONTINUOUS
 62
0
 10
4.3874703552153
 20
2.42541794270948
 30
0.0
 40
0.0984022539078899
 50
179.999999999999
 51
359.999999999999
  0
ARC
  8
0
  6
CONTINUOUS
 62
0
 10
4.56465137940176
 20
2.58295742914067
 30
0.0
 40
0.157503322653954
 50
359.993418641537
 51
89.9712026750827
  0
LINE
  8
0
  6
CONTINUOUS
 62
0
 10
4.56463330642101
 20
2.74036349647198
 30
0.0
 11
4.08390134661804
 21
2.74036349647198
 31
0.0
  0
ARC
  8
0
  6
CONTINUOUS
 62
0
 10
4.08386885682548
 20
2.58277325547056
 30
0.0
 40
0.157687529790924
 50
89.9528643227142
 51
112.273216749385
  0
LINE
  8
0
  6
CONTINUOUS
 62
0
 10
4.02400432250019
 20
2.72859800959168
 30
0.0
 11
3.04805232400862
 21
2.32779357223168
 31
0.0
  0
ARC
  8
0
  6
CONTINUOUS
 62
0
 10
3.10796075823081
 20
2.18215402041208
 30
0.0
 40
0.157532824067212
 50
112.313522914903
 51
179.971589046045
  0
LINE
  8
0
  6
CONTINUOUS
 62
0
 10
2.95042795353083
 20
2.18213489994508
 30
0.0
 11
2.95042795353083
 21
1.71676613788668
 31
0.0
  0
ARC
  8
0
  6
CONTINUOUS
 62
0
 10
3.10793129400045
 20
1.71674802719627
 30
0.0
 40
0.157503382705948
 50
179.958039971682
 51
269.935824005227
  0
LINE
  8
0
  6
CONTINUOUS
 62
0
 10
3.10794934812646
 20
1.55934197871978
 30
0.0
 11
4.56463330642101
 21
1.55934197871978
 31
0.0
  0
ARC
  8
0
  6
CONTINUOUS
 62
0
 10
4.56460279939696
 20
1.71679672032975
 30
0.0
 40
0.157552062357067
 50
269.940372488899
 51
359.918156522444
  0
LINE
  8
0
  6
CONTINUOUS
 62
0
 10
4.72205746558787
 20
1.71676613788668
 30
0.0
 11
4.72205746558787
 21
2.58293933730508
 31
0.0
  0
ARC
  8
0
  6
CONTINUOUS
 62
0
 10
5.18168131997777
 20
1.88420815239768
 30
0.0
 40
0.098402253907885
 50
359.999999999999
 51
180
  0
ARC
  8
0
  6
CONTINUOUS
 62
0
 10
5.18168131997777
 20
1.88420815239768
 30
0.0
 40
0.098402253907885
 50
179.999999999999
 51
359.999999999999
  0
ARC
  8
0
  6
CONTINUOUS
 62
0
 10
5.57538757103809
 20
1.88420815239768
 30
0.0
 40
0.0984022539078904
 50
359.999999999999
 51
180
  0
ARC
  8
0
  6
CONTINUOUS
 62
0
 10
5.57538757103809
 20
1.88420815239768
 30
0.0
 40
0.0984022539078904
 50
179.999999999999
 51
359.999999999999
  0
ARC
  8
0
  6
CONTINUOUS
 62
0
 10
6.38253886519756
 20
1.83500702544378
 30
0.0
 40
0.0984022539078899
 50
359.999999999999
 51
180
  0
ARC
  8
0
  6
CONTINUOUS
 62
0
 10
6.38253886519756
 20
1.83500702544378
 30
0.0
 40
0.0984022539078899
 50
179.999999999999
 51
359.999999999999
  0
ARC
  8
0
  6
CONTINUOUS
 62
0
 10
6.38253886519756
 20
2.38613743567098
 30
0.0
 40
0.0984022539078899
 50
359.999999999999
 51
180
  0
ARC
  8
0
  6
CONTINUOUS
 62
0
 10
6.38253886519756
 20
2.38613743567098
 30
0.0
 40
0.0984022539078899
 50
179.999999999999
 51
359.999999999999
  0
ARC
  8
0
  6
CONTINUOUS
 62
0
 10
6.55971988938402
 20
2.54367692210218
 30
0.0
 40
0.157503322653954
 50
359.993418641537
 51
89.9712026750827
  0
LINE
  8
0
  6
CONTINUOUS
 62
0
 10
6.55970181640327
 20
2.70108298943348
 30
0.0
 11
6.0789698566003
 21
2.70108298943348
 31
0.0
  0
ARC
  8
0
  6
CONTINUOUS
 62
0
 10
6.07893736680774
 20
2.54349274843207
 30
0.0
 40
0.157687529790923
 50
89.9528643227134
 51
112.273216749384
  0
LINE
  8
0
  6
CONTINUOUS
 62
0
 10
6.01907283248245
 20
2.68931750255318
 30
0.0
 11
5.04312083399088
 21
2.28851306519318
 31
0.0
  0
ARC
  8
0
  6
CONTINUOUS
 62
0
 10
5.10302926821308
 20
2.14287351337359
 30
0.0
 40
0.157532824067213
 50
112.313522914903
 51
179.971589046045
  0
LINE
  8
0
  6
CONTINUOUS
 62
0
 10
4.94549646351309
 20
2.14285439290658
 30
0.0
 11
4.94549646351309
 21
1.67748563084818
 31
0.0
  0
ARC
  8
0
  6
CONTINUOUS
 62
0
 10
5.10299980398271
 20
1.67746752015778
 30
0.0
 40
0.157503382705948
 50
179.958039971682
 51
269.935824005227
  0
LINE
  8
0
  6
CONTINUOUS
 62
0
 10
5.10301785810872
 20
1.52006147168128
 30
0.0
 11
6.55970181640327
 21
1.52006147168128
 31
0.0
  0
ARC
  8
0
  6
CONTINUOUS
 62
0
 10
6.55967130937922
 20
1.67751621329126
 30
0.0
 40
0.157552062357068
 50
269.9403724889
 51
359.918156522445
  0
LINE
  8
0
  6
CONTINUOUS
 62
0
 10
6.71712597557013
 20
1.67748563084818
 30
0.0
 11
6.71712597557013
 21
2.54365883026658
 31
0.0
  0
ARC
  8
0
  6
CONTINUOUS
 62
0
 10
5.18168131997777
 20
3.28892801333095
 30
0.0
 40
0.098402253907885
 50
359.999999999999
 51
180
  0
ARC
  8
0
  6
CONTINUOUS
 62
0
 10
5.18168131997777
 20
3.28892801333095
 30
0.0
 40
0.098402253907885
 50
179.999999999999
 51
359.999999999999
  0
ARC
  8
0
  6
CONTINUOUS
 62
0
 10
5.57538757103809
 20
3.28892801333095
 30
0.0
 40
0.0984022539078904
 50
359.999999999999
 51
180
  0
ARC
  8
0
  6
CONTINUOUS
 62
0
 10
5.57538757103809
 20
3.28892801333095
 30
0.0
 40
0.0984022539078904
 50
179.999999999999
 51
359.999999999999
  0
ARC
  8
0
  6
CONTINUOUS
 62
0
 10
6.38253886519756
 20
3.23972688637705
 30
0.0
 40
0.0984022539078899
 50
359.999999999999
 51
180
  0
ARC
  8
0
  6
CONTINUOUS
 62
0
 10
6.38253886519756
 20
3.23972688637705
 30
0.0
 40
0.0984022539078899
 50
179.999999999999
 51
359.999999999999
  0
ARC
  8
0
  6
CONTINUOUS
 62
0
 10
6.38253886519756
 20
3.79085729660425
 30
0.0
 40
0.0984022539078899
 50
359.999999999999
 51
180
  0
ARC
  8
0
  6
CONTINUOUS
 62
0
 10
6.38253886519756
 20
3.79085729660425
 30
0.0
 40
0.0984022539078899
 50
179.999999999999
 51
359.999999999999
  0
ARC
  8
0
  6
CONTINUOUS
 62
0
 10
6.55971988938402
 20
3.94839678303544
 30
0.0
 40
0.157503322653954
 50
359.993418641537
 51
89.9712026750827
  0
LINE
  8
0
  6
CONTINUOUS
 62
0
 10
6.55970181640327
 20
4.10580285036675
 30
0.0
 11
6.0789698566003
 21
4.10580285036675
 31
0.0
  0
ARC
  8
0
  6
CONTINUOUS
 62
0
 10
6.07893736680774
 20
3.94821260936533
 30
0.0
 40
0.157687529790923
 50
89.9528643227134
 51
112.273216749384
  0
LINE
  8
0
  6
CONTINUOUS
 62
0
 10
6.01907283248245
 20
4.09403736348645
 30
0.0
 11
5.04312083399088
 21
3.69323292612645
 31
0.0
  0
ARC
  8
0
  6
CONTINUOUS
 62
0
 10
5.10302926821308
 20
3.54759337430685
 30
0.0
 40
0.157532824067213
 50
112.313522914903
 51
179.971589046045
  0
LINE
  8
0
  6
CONTINUOUS
 62
0
 10
4.94549646351309
 20
3.54757425383985
 30
0.0
 11
4.94549646351309
 21
3.08220549178145
 31
0.0
  0
ARC
  8
0
  6
CONTINUOUS
 62
0
 10
5.10299980398271
 20
3.08218738109104
 30
0.0
 40
0.157503382705948
 50
179.958039971682
 51
269.935824005227
  0
LINE
  8
0
  6
CONTINUOUS
 62
0
 10
5.10301785810872
 20
2.92478133261455
 30
0.0
 11
6.55970181640327
 21
2.92478133261455
 31
0.0
  0
ARC
  8
0
  6
CONTINUOUS
 62
0
 10
6.55967130937922
 20
3.08223607422452
 30
0.0
 40
0.157552062357068
 50
269.9403724889
 51
359.918156522445
  0
LINE
  8
0
  6
CONTINUOUS
 62
0
 10
6.71712597557013
 20
3.08220549178145
 30
0.0
 11
6.71712597557013
 21
3.94837869119985
 31
0.0
  0
ARC
  8
0
  6
CONTINUOUS
 62
0
 10
5.21816755013188
 20
4.71189098934127
 30
0.0
 40
0.098402253907885
 50
359.999999999999
 51
180
  0
ARC
  8
0
  6
CONTINUOUS
 62
0
 10
5.21816755013188
 20
4.71189098934126
 30
0.0
 40
0.098402253907885
 50
179.999999999999
 51
359.999999999999
  0
ARC
  8
0
  6
CONTINUOUS
 62
0
 10
5.6118738011922
 20
4.71189098934127
 30
0.0
 40
0.0984022539078904
 50
359.999999999999
 51
180
  0
ARC
  8
0
  6
CONTINUOUS
 62
0
 10
5.6118738011922
 20
4.71189098934126
 30
0.0
 40
0.0984022539078904
 50
179.999999999999
 51
359.999999999999
  0
ARC
  8
0
  6
CONTINUOUS
 62
0
 10
6.41902509535167
 20
4.66268986238737
 30
0.0
 40
0.0984022539078899
 50
359.999999999999
 51
180
  0
ARC
  8
0
  6
CONTINUOUS
 62
0
 10
6.41902509535167
 20
4.66268986238736
 30
0.0
 40
0.0984022539078899
 50
179.999999999999
 51
359.999999999999
  0
ARC
  8
0
  6
CONTINUOUS
 62
0
 10
6.41902509535167
 20
5.21382027261457
 30
0.0
 40
0.0984022539078899
 50
359.999999999999
 51
180
  0
ARC
  8
0
  6
CONTINUOUS
 62
0
 10
6.41902509535167
 20
5.21382027261456
 30
0.0
 40
0.0984022539078899
 50
179.999999999999
 51
359.999999999999
  0
ARC
  8
0
  6
CONTINUOUS
 62
0
 10
6.59620611953813
 20
5.37135975904576
 30
0.0
 40
0.157503322653954
 50
359.993418641537
 51
89.9712026750825
  0
LINE
  8
0
  6
CONTINUOUS
 62
0
 10
6.59618804655738
 20
5.52876582637707
 30
0.0
 11
6.11545608675441
 21
5.52876582637707
 31
0.0
  0
ARC
  8
0
  6
CONTINUOUS
 62
0
 10
6.11542359696185
 20
5.37117558537565
 30
0.0
 40
0.157687529790923
 50
89.9528643227134
 51
112.273216749384
  0
LINE
  8
0
  6
CONTINUOUS
 62
0
 10
6.05555906263656
 20
5.51700033949677
 30
0.0
 11
5.07960706414499
 21
5.11619590213677
 31
0.0
  0
ARC
  8
0
  6
CONTINUOUS
 62
0
 10
5.13951549836719
 20
4.97055635031717
 30
0.0
 40
0.157532824067213
 50
112.313522914903
 51
179.971589046045
  0
LINE
  8
0
  6
CONTINUOUS
 62
0
 10
4.9819826936672
 20
4.97053722985017
 30
0.0
 11
4.9819826936672
 21
4.50516846779177
 31
0.0
  0
ARC
  8
0
  6
CONTINUOUS
 62
0
 10
5.13948603413682
 20
4.50515035710136
 30
0.0
 40
0.157503382705948
 50
179.958039971682
 51
269.935824005227
  0
LINE
  8
0
  6
CONTINUOUS
 62
0
 10
5.13950408826283
 20
4.34774430862487
 30
0.0
 11
6.59618804655738
 21
4.34774430862487
 31
0.0
  0
ARC
  8
0
  6
CONTINUOUS
 62
0
 10
6.59615753953333
 20
4.50519905023484
 30
0.0
 40
0.157552062357068
 50
269.9403724889
 51
359.918156522445
  0
LINE
  8
0
  6
CONTINUOUS
 62
0
 10
6.75361220572424
 20
4.50516846779177
 30
0.0
 11
6.75361220572424
 21
5.37134166721017
 31
0.0
  0
ARC
  8
0
  6
CONTINUOUS
 62
0
 10
5.21816755013188
 20
6.08012462012042
 30
0.0
 40
0.098402253907885
 50
359.999999999999
 51
180
  0
ARC
  8
0
  6
CONTINUOUS
 62
0
 10
5.21816755013188
 20
6.08012462012042
 30
0.0
 40
0.098402253907885
 50
179.999999999999
 51
359.999999999999
  0
ARC
  8
0
  6
CONTINUOUS
 62
0
 10
5.6118738011922
 20
6.08012462012042
 30
0.0
 40
0.0984022539078904
 50
359.999999999999
 51
180
  0
ARC
  8
0
  6
CONTINUOUS
 62
0
 10
5.6118738011922
 20
6.08012462012042
 30
0.0
 40
0.0984022539078904
 50
179.999999999999
 51
359.999999999999
  0
ARC
  8
0
  6
CONTINUOUS
 62
0
 10
6.41902509535167
 20
6.03092349316652
 30
0.0
 40
0.0984022539078899
 50
359.999999999999
 51
180
  0
ARC
  8
0
  6
CONTINUOUS
 62
0
 10
6.41902509535167
 20
6.03092349316652
 30
0.0
 40
0.0984022539078899
 50
179.999999999999
 51
359.999999999999
  0
ARC
  8
0
  6
CONTINUOUS
 62
0
 10
6.41902509535167
 20
6.58205390339372
 30
0.0
 40
0.0984022539078899
 50
359.999999999999
 51
180
  0
ARC
  8
0
  6
CONTINUOUS
 62
0
 10
6.41902509535167
 20
6.58205390339372
 30
0.0
 40
0.0984022539078899
 50
179.999999999999
 51
359.999999999999
  0
ARC
  8
0
  6
CONTINUOUS
 62
0
 10
6.59620611953813
 20
6.73959338982491
 30
0.0
 40
0.157503322653954
 50
359.993418641537
 51
89.9712026750827
  0
LINE
  8
0
  6
CONTINUOUS
 62
0
 10
6.59618804655738
 20
6.89699945715622
 30
0.0
 11
6.11545608675441
 21
6.89699945715622
 31
0.0
  0
ARC
  8
0
  6
CONTINUOUS
 62
0
 10
6.11542359696185
 20
6.7394092161548
 30
0.0
 40
0.157687529790923
 50
89.9528643227134
 51
112.273216749384
  0
LINE
  8
0
  6
CONTINUOUS
 62
0
 10
6.05555906263656
 20
6.88523397027592
 30
0.0
 11
5.07960706414499
 21
6.48442953291592
 31
0.0
  0
ARC
  8
0
  6
CONTINUOUS
 62
0
 10
5.13951549836719
 20
6.33878998109633
 30
0.0
 40
0.157532824067213
 50
112.313522914903
 51
179.971589046045
  0
LINE
  8
0
  6
CONTINUOUS
 62
0
 10
4.9819826936672
 20
6.33877086062932
 30
0.0
 11
4.9819826936672
 21
5.87340209857092
 31
0.0
  0
ARC
  8
0
  6
CONTINUOUS
 62
0
 10
5.13948603413682
 20
5.87338398788052
 30
0.0
 40
0.157503382705948
 50
179.958039971682
 51
269.935824005227
  0
LINE
  8
0
  6
CONTINUOUS
 62
0
 10
5.13950408826283
 20
5.71597793940402
 30
0.0
 11
6.59618804655738
 21
5.71597793940402
 31
0.0
  0
ARC
  8
0
  6
CONTINUOUS
 62
0
 10
6.59615753953333
 20
5.87343268101399
 30
0.0
 40
0.157552062357068
 50
269.9403724889
 51
359.918156522445
  0
LINE
  8
0
  6
CONTINUOUS
 62
0
 10
6.75361220572424
 20
5.87340209857092
 30
0.0
 11
6.75361220572424
 21
6.73957529798932
 31
0.0
  0
ARC
  8
0
  6
CONTINUOUS
 62
0
 10
5.18168131997777
 20
7.43011513582252
 30
0.0
 40
0.098402253907885
 50
359.999999999999
 51
180
  0
ARC
  8
0
  6
CONTINUOUS
 62
0
 10
5.18168131997777
 20
7.43011513582251
 30
0.0
 40
0.098402253907885
 50
179.999999999999
 51
359.999999999999
  0
ARC
  8
0
  6
CONTINUOUS
 62
0
 10
5.57538757103809
 20
7.43011513582252
 30
0.0
 40
0.0984022539078904
 50
359.999999999999
 51
180
  0
ARC
  8
0
  6
CONTINUOUS
 62
0
 10
5.57538757103809
 20
7.43011513582251
 30
0.0
 40
0.0984022539078904
 50
179.999999999999
 51
359.999999999999
  0
ARC
  8
0
  6
CONTINUOUS
 62
0
 10
6.38253886519756
 20
7.38091400886862
 30
0.0
 40
0.0984022539078899
 50
359.999999999999
 51
180
  0
ARC
  8
0
  6
CONTINUOUS
 62
0
 10
6.38253886519756
 20
7.38091400886861
 30
0.0
 40
0.0984022539078899
 50
179.999999999999
 51
359.999999999999
  0
ARC
  8
0
  6
CONTINUOUS
 62
0
 10
6.38253886519756
 20
7.93204441909582
 30
0.0
 40
0.0984022539078899
 50
359.999999999999
 51
180
  0
ARC
  8
0
  6
CONTINUOUS
 62
0
 10
6.38253886519756
 20
7.93204441909582
 30
0.0
 40
0.0984022539078899
 50
179.999999999999
 51
359.999999999999
  0
ARC
  8
0
  6
CONTINUOUS
 62
0
 10
6.55971988938402
 20
8.08958390552701
 30
0.0
 40
0.157503322653954
 50
359.993418641537
 51
89.9712026750825
  0
LINE
  8
0
  6
CONTINUOUS
 62
0
 10
6.55970181640327
 20
8.24698997285832
 30
0.0
 11
6.0789698566003
 21
8.24698997285832
 31
0.0
  0
ARC
  8
0
  6
CONTINUOUS
 62
0
 10
6.07893736680774
 20
8.0893997318569
 30
0.0
 40
0.157687529790923
 50
89.9528643227134
 51
112.273216749384
  0
LINE
  8
0
  6
CONTINUOUS
 62
0
 10
6.01907283248245
 20
8.23522448597802
 30
0.0
 11
5.04312083399088
 21
7.83442004861802
 31
0.0
  0
ARC
  8
0
  6
CONTINUOUS
 62
0
 10
5.10302926821308
 20
7.68878049679842
 30
0.0
 40
0.157532824067213
 50
112.313522914903
 51
179.971589046045
  0
LINE
  8
0
  6
CONTINUOUS
 62
0
 10
4.94549646351309
 20
7.68876137633142
 30
0.0
 11
4.94549646351309
 21
7.22339261427302
 31
0.0
  0
ARC
  8
0
  6
CONTINUOUS
 62
0
 10
5.10299980398271
 20
7.22337450358261
 30
0.0
 40
0.157503382705948
 50
179.958039971682
 51
269.935824005227
  0
LINE
  8
0
  6
CONTINUOUS
 62
0
 10
5.10301785810872
 20
7.06596845510612
 30
0.0
 11
6.55970181640327
 21
7.06596845510612
 31
0.0
  0
ARC
  8
0
  6
CONTINUOUS
 62
0
 10
6.55967130937922
 20
7.22342319671609
 30
0.0
 40
0.157552062357068
 50
269.9403724889
 51
359.918156522445
  0
LINE
  8
0
  6
CONTINUOUS
 62
0
 10
6.71712597557013
 20
7.22339261427302
 30
0.0
 11
6.71712597557013
 21
8.08956581369142
 31
0.0
  0
ARC
  8
0
  6
CONTINUOUS
 62
0
 10
5.25887170696538
 20
8.74876090731772
 30
0.0
 40
0.098402253907885
 50
359.999999999999
 51
180
  0
ARC
  8
0
  6
CONTINUOUS
 62
0
 10
5.25887170696538
 20
8.74876090731772
 30
0.0
 40
0.098402253907885
 50
179.999999999999
 51
359.999999999999
  0
ARC
  8
0
  6
CONTINUOUS
 62
0
 10
5.6525779580257
 20
8.74876090731772
 30
0.0
 40
0.0984022539078899
 50
359.999999999999
 51
180
  0
ARC
  8
0
  6
CONTINUOUS
 62
0
 10
5.6525779580257
 20
8.74876090731772
 30
0.0
 40
0.0984022539078899
 50
179.999999999999
 51
359.999999999999
  0
ARC
  8
0
  6
CONTINUOUS
 62
0
 10
6.45972925218516
 20
8.69955978036382
 30
0.0
 40
0.0984022539078899
 50
359.999999999999
 51
180
  0
ARC
  8
0
  6
CONTINUOUS
 62
0
 10
6.45972925218516
 20
8.69955978036382
 30
0.0
 40
0.0984022539078899
 50
179.999999999999
 51
359.999999999999
  0
ARC
  8
0
  6
CONTINUOUS
 62
0
 10
6.45972925218516
 20
9.25069019059102
 30
0.0
 40
0.0984022539078899
 50
359.999999999999
 51
180
  0
ARC
  8
0
  6
CONTINUOUS
 62
0
 10
6.45972925218516
 20
9.25069019059102
 30
0.0
 40
0.0984022539078899
 50
179.999999999999
 51
359.999999999999
  0
ARC
  8
0
  6
CONTINUOUS
 62
0
 10
6.63691027637162
 20
9.40822967702221
 30
0.0
 40
0.157503322653953
 50
359.993418641538
 51
89.9712026750829
  0
LINE
  8
0
  6
CONTINUOUS
 62
0
 10
6.63689220339087
 20
9.56563574435352
 30
0.0
 11
6.1561602435879
 21
9.56563574435352
 31
0.0
  0
ARC
  8
0
  6
CONTINUOUS
 62
0
 10
6.15612775379535
 20
9.4080455033521
 30
0.0
 40
0.157687529790923
 50
89.9528643227134
 51
112.273216749384
  0
LINE
  8
0
  6
CONTINUOUS
 62
0
 10
6.09626321947005
 20
9.55387025747322
 30
0.0
 11
5.12031122097848
 21
9.15306582011322
 31
0.0
  0
ARC
  8
0
  6
CONTINUOUS
 62
0
 10
5.18021965520068
 20
9.00742626829362
 30
0.0
 40
0.157532824067212
 50
112.313522914902
 51
179.971589046044
  0
LINE
  8
0
  6
CONTINUOUS
 62
0
 10
5.02268685050069
 20
9.00740714782662
 30
0.0
 11
5.02268685050069
 21
8.54203838576822
 31
0.0
  0
ARC
  8
0
  6
CONTINUOUS
 62
0
 10
5.18019019097032
 20
8.54202027507782
 30
0.0
 40
0.15750338270595
 50
179.958039971682
 51
269.935824005227
  0
LINE
  8
0
  6
CONTINUOUS
 62
0
 10
5.18020824509632
 20
8.38461422660132
 30
0.0
 11
6.63689220339087
 21
8.38461422660132
 31
0.0
  0
ARC
  8
0
  6
CONTINUOUS
 62
0
 10
6.63686169636683
 20
8.54206896821129
 30
0.0
 40
0.157552062357067
 50
269.9403724889
 51
359.918156522445
  0
LINE
  8
0
  6
CONTINUOUS
 62
0
 10
6.79431636255773
 20
8.54203838576822
 30
0.0
 11
6.79431636255773
 21
9.40821158518662
 31
0.0
  0
ARC
  8
0
  6
CONTINUOUS
 62
0
 10
5.22244497293332
 20
10.0965500665039
 30
0.0
 40
0.098402253907885
 50
359.999999999999
 51
180
  0
ARC
  8
0
  6
CONTINUOUS
 62
0
 10
5.22244497293332
 20
10.0965500665039
 30
0.0
 40
0.098402253907885
 50
179.999999999999
 51
359.999999999999
  0
ARC
  8
0
  6
CONTINUOUS
 62
0
 10
5.61615122399363
 20
10.0965500665039
 30
0.0
 40
0.0984022539078899
 50
359.999999999999
 51
180
  0
ARC
  8
0
  6
CONTINUOUS
 62
0
 10
5.61615122399363
 20
10.0965500665039
 30
0.0
 40
0.0984022539078899
 50
179.999999999999
 51
359.999999999999
  0
ARC
  8
0
  6
CONTINUOUS
 62
0
 10
6.4233025181531
 20
10.04734893955
 30
0.0
 40
0.0984022539078899
 50
359.999999999999
 51
180
  0
ARC
  8
0
  6
CONTINUOUS
 62
0
 10
6.4233025181531
 20
10.04734893955
 30
0.0
 40
0.0984022539078899
 50
179.999999999999
 51
359.999999999999
  0
ARC
  8
0
  6
CONTINUOUS
 62
0
 10
6.4233025181531
 20
10.5984793497772
 30
0.0
 40
0.0984022539078899
 50
359.999999999999
 51
180
  0
ARC
  8
0
  6
CONTINUOUS
 62
0
 10
6.4233025181531
 20
10.5984793497772
 30
0.0
 40
0.0984022539078899
 50
179.999999999999
 51
359.999999999999
  0
ARC
  8
0
  6
CONTINUOUS
 62
0
 10
6.60048354233956
 20
10.7560188362084
 30
0.0
 40
0.157503322653953
 50
359.993418641538
 51
89.9712026750829
  0
LINE
  8
0
  6
CONTINUOUS
 62
0
 10
6.60046546935881
 20
10.9134249035397
 30
0.0
 11
6.11973350955584
 21
10.9134249035397
 31
0.0
  0
ARC
  8
0
  6
CONTINUOUS
 62
0
 10
6.11970101976329
 20
10.7558346625383
 30
0.0
 40
0.157687529790923
 50
89.9528643227134
 51
112.273216749384
  0
LINE
  8
0
  6
CONTINUOUS
 62
0
 10
6.05983648543799
 20
10.9016594166594
 30
0.0
 11
5.08388448694642
 21
10.5008549792994
 31
0.0
  0
ARC
  8
0
  6
CONTINUOUS
 62
0
 10
5.14379292116862
 20
10.3552154274798
 30
0.0
 40
0.157532824067212
 50
112.313522914902
 51
179.971589046044
  0
LINE
  8
0
  6
CONTINUOUS
 62
0
 10
4.98626011646863
 20
10.3551963070128
 30
0.0
 11
4.98626011646863
 21
9.88982754495444
 31
0.0
  0
ARC
  8
0
  6
CONTINUOUS
 62
0
 10
5.14376345693826
 20
9.88980943426404
 30
0.0
 40
0.15750338270595
 50
179.958039971682
 51
269.935824005227
  0
LINE
  8
0
  6
CONTINUOUS
 62
0
 10
5.14378151106427
 20
9.73240338578754
 30
0.0
 11
6.60046546935881
 21
9.73240338578754
 31
0.0
  0
ARC
  8
0
  6
CONTINUOUS
 62
0
 10
6.60043496233477
 20
9.88985812739752
 30
0.0
 40
0.157552062357067
 50
269.9403724889
 51
359.918156522445
  0
LINE
  8
0
  6
CONTINUOUS
 62
0
 10
6.75788962852567
 20
9.88982754495444
 30
0.0
 11
6.75788962852567
 21
10.7560007443728
 31
0.0
  0
ARC
  8
0
  6
CONTINUOUS
 62
0
 10
5.31225989424669
 20
11.4336979586725
 30
0.0
 40
0.0984022539078904
 50
359.999999999999
 51
180
  0
ARC
  8
0
  6
CONTINUOUS
 62
0
 10
5.31225989424669
 20
11.4336979586725
 30
0.0
 40
0.0984022539078904
 50
179.999999999999
 51
359.999999999999
  0
ARC
  8
0
  6
CONTINUOUS
 62
0
 10
5.70596614530701
 20
11.4336979586725
 30
0.0
 40
0.0984022539078904
 50
359.999999999999
 51
180
  0
ARC
  8
0
  6
CONTINUOUS
 62
0
 10
5.70596614530701
 20
11.4336979586725
 30
0.0
 40
0.0984022539078904
 50
179.999999999999
 51
359.999999999999
  0
ARC
  8
0
  6
CONTINUOUS
 62
0
 10
6.51311743946647
 20
11.3844968317186
 30
0.0
 40
0.0984022539078899
 50
359.999999999999
 51
180
  0
ARC
  8
0
  6
CONTINUOUS
 62
0
 10
6.51311743946647
 20
11.3844968317186
 30
0.0
 40
0.0984022539078899
 50
179.999999999999
 51
359.999999999999
  0
ARC
  8
0
  6
CONTINUOUS
 62
0
 10
6.51311743946647
 20
11.9356272419458
 30
0.0
 40
0.0984022539078899
 50
359.999999999999
 51
180
  0
ARC
  8
0
  6
CONTINUOUS
 62
0
 10
6.51311743946647
 20
11.9356272419458
 30
0.0
 40
0.0984022539078899
 50
179.999999999999
 51
359.999999999999
  0
ARC
  8
0
  6
CONTINUOUS
 62
0
 10
6.69029846365293
 20
12.093166728377
 30
0.0
 40
0.157503322653948
 50
359.993418641536
 51
89.9712026750811
  0
LINE
  8
0
  6
CONTINUOUS
 62
0
 10
6.69028039067218
 20
12.2505727957083
 30
0.0
 11
6.20954843086921
 21
12.2505727957083
 31
0.0
  0
ARC
  8
0
  6
CONTINUOUS
 62
0
 10
6.20951594107666
 20
12.0929825547068
 30
0.0
 40
0.157687529790948
 50
89.9528643227116
 51
112.273216749383
  0
LINE
  8
0
  6
CONTINUOUS
 62
0
 10
6.14965140675136
 20
12.238807308828
 30
0.0
 11
5.17369940825979
 21
11.838002871468
 31
0.0
  0
ARC
  8
0
  6
CONTINUOUS
 62
0
 10
5.23360784248199
 20
11.6923633196484
 30
0.0
 40
0.157532824067217
 50
112.3135229149
 51
179.971589046042
  0
LINE
  8
0
  6
CONTINUOUS
 62
0
 10
5.076075037782
 20
11.6923441991814
 30
0.0
 11
5.076075037782
 21
11.226975437123
 31
0.0
  0
ARC
  8
0
  6
CONTINUOUS
 62
0
 10
5.23357837825162
 20
11.2269573264326
 30
0.0
 40
0.157503382705948
 50
179.958039971682
 51
269.935824005227
  0
LINE
  8
0
  6
CONTINUOUS
 62
0
 10
5.23359643237764
 20
11.0695512779561
 30
0.0
 11
6.69028039067218
 21
11.0695512779561
 31
0.0
  0
ARC
  8
0
  6
CONTINUOUS
 62
0
 10
6.69024988364814
 20
11.2270060195661
 30
0.0
 40
0.157552062357063
 50
269.940372488901
 51
359.918156522446
  0
LINE
  8
0
  6
CONTINUOUS
 62
0
 10
6.84770454983904
 20
11.226975437123
 30
0.0
 11
6.84770454983904
 21
12.0931486365414
 31
0.0
  0
ARC
  8
0
  6
CONTINUOUS
 62
0
 10
5.31174042176446
 20
12.7838703468851
 30
0.0
 40
0.0984022539078904
 50
359.999999999999
 51
180
  0
ARC
  8
0
  6
CONTINUOUS
 62
0
 10
5.31174042176446
 20
12.7838703468851
 30
0.0
 40
0.0984022539078904
 50
179.999999999999
 51
359.999999999999
  0
ARC
  8
0
  6
CONTINUOUS
 62
0
 10
5.70544667282478
 20
12.7838703468851
 30
0.0
 40
0.0984022539078904
 50
359.999999999999
 51
180
  0
ARC
  8
0
  6
CONTINUOUS
 62
0
 10
5.70544667282478
 20
12.7838703468851
 30
0.0
 40
0.0984022539078904
 50
179.999999999999
 51
359.999999999999
  0
ARC
  8
0
  6
CONTINUOUS
 62
0
 10
6.51259796698424
 20
12.7346692199312
 30
0.0
 40
0.0984022539078899
 50
359.999999999999
 51
180
  0
ARC
  8
0
  6
CONTINUOUS
 62
0
 10
6.51259796698424
 20
12.7346692199312
 30
0.0
 40
0.0984022539078899
 50
179.999999999999
 51
359.999999999999
  0
ARC
  8
0
  6
CONTINUOUS
 62
0
 10
6.51259796698424
 20
13.2857996301584
 30
0.0
 40
0.0984022539078899
 50
359.999999999999
 51
180
  0
ARC
  8
0
  6
CONTINUOUS
 62
0
 10
6.51259796698424
 20
13.2857996301584
 30
0.0
 40
0.0984022539078899
 50
179.999999999999
 51
359.999999999999
  0
ARC
  8
0
  6
CONTINUOUS
 62
0
 10
6.68977899117071
 20
13.4433391165896
 30
0.0
 40
0.157503322653948
 50
359.993418641536
 51
89.9712026750811
  0
LINE
  8
0
  6
CONTINUOUS
 62
0
 10
6.68976091818995
 20
13.6007451839209
 30
0.0
 11
6.20902895838698
 21
13.6007451839209
 31
0.0
  0
ARC
  8
0
  6
CONTINUOUS
 62
0
 10
6.20899646859443
 20
13.4431549429194
 30
0.0
 40
0.157687529790948
 50
89.9528643227116
 51
112.273216749383
  0
LINE
  8
0
  6
CONTINUOUS
 62
0
 10
6.14913193426913
 20
13.5889796970406
 30
0.0
 11
5.17317993577756
 21
13.1881752596806
 31
0.0
  0
ARC
  8
0
  6
CONTINUOUS
 62
0
 10
5.23308836999976
 20
13.042535707861
 30
0.0
 40
0.157532824067217
 50
112.3135229149
 51
179.971589046042
  0
LINE
  8
0
  6
CONTINUOUS
 62
0
 10
5.07555556529977
 20
13.042516587394
 30
0.0
 11
5.07555556529977
 21
12.5771478253356
 31
0.0
  0
ARC
  8
0
  6
CONTINUOUS
 62
0
 10
5.23305890576939
 20
12.5771297146452
 30
0.0
 40
0.157503382705948
 50
179.958039971682
 51
269.935824005227
  0
LINE
  8
0
  6
CONTINUOUS
 62
0
 10
5.23307695989541
 20
12.4197236661687
 30
0.0
 11
6.68976091818995
 21
12.4197236661687
 31
0.0
  0
ARC
  8
0
  6
CONTINUOUS
 62
0
 10
6.68973041116591
 20
12.5771784077787
 30
0.0
 40
0.157552062357063
 50
269.940372488901
 51
359.918156522446
  0
LINE
  8
0
  6
CONTINUOUS
 62
0
 10
6.84718507735681
 20
12.5771478253356
 30
0.0
 11
6.84718507735681
 21
13.443321024754
 31
0.0
  0
ARC
  8
0
  6
CONTINUOUS
 62
0
 10
5.38129955070193
 20
14.1629183182149
 30
0.0
 40
0.0984022539078904
 50
359.999999999999
 51
180
  0
ARC
  8
0
  6
CONTINUOUS
 62
0
 10
5.38129955070193
 20
14.1629183182149
 30
0.0
 40
0.0984022539078904
 50
179.999999999999
 51
359.999999999999
  0
ARC
  8
0
  6
CONTINUOUS
 62
0
 10
5.77500580176225
 20
14.1629183182149
 30
0.0
 40
0.0984022539078904
 50
359.999999999999
 51
180
  0
ARC
  8
0
  6
CONTINUOUS
 62
0
 10
5.77500580176225
 20
14.1629183182149
 30
0.0
 40
0.0984022539078904
 50
179.999999999999
 51
359.999999999999
  0
ARC
  8
0
  6
CONTINUOUS
 62
0
 10
6.58215709592171
 20
14.113717191261
 30
0.0
 40
0.0984022539078899
 50
359.999999999999
 51
180
  0
ARC
  8
0
  6
CONTINUOUS
 62
0
 10
6.58215709592171
 20
14.113717191261
 30
0.0
 40
0.0984022539078899
 50
179.999999999999
 51
359.999999999999
  0
ARC
  8
0
  6
CONTINUOUS
 62
0
 10
6.58215709592171
 20
14.6648476014882
 30
0.0
 40
0.0984022539078899
 50
359.999999999999
 51
180
  0
ARC
  8
0
  6
CONTINUOUS
 62
0
 10
6.58215709592171
 20
14.6648476014882
 30
0.0
 40
0.0984022539078899
 50
179.999999999999
 51
359.999999999999
  0
ARC
  8
0
  6
CONTINUOUS
 62
0
 10
6.75933812010818
 20
14.8223870879194
 30
0.0
 40
0.157503322653948
 50
359.993418641536
 51
89.9712026750811
  0
LINE
  8
0
  6
CONTINUOUS
 62
0
 10
6.75932004712742
 20
14.9797931552507
 30
0.0
 11
6.27858808732445
 21
14.9797931552507
 31
0.0
  0
ARC
  8
0
  6
CONTINUOUS
 62
0
 10
6.2785555975319
 20
14.8222029142493
 30
0.0
 40
0.157687529790948
 50
89.9528643227116
 51
112.273216749383
  0
LINE
  8
0
  6
CONTINUOUS
 62
0
 10
6.2186910632066
 20
14.9680276683704
 30
0.0
 11
5.24273906471503
 21
14.5672232310104
 31
0.0
  0
ARC
  8
0
  6
CONTINUOUS
 62
0
 10
5.30264749893723
 20
14.4215836791908
 30
0.0
 40
0.157532824067217
 50
112.3135229149
 51
179.971589046042
  0
LINE
  8
0
  6
CONTINUOUS
 62
0
 10
5.14511469423724
 20
14.4215645587238
 30
0.0
 11
5.14511469423724
 21
13.9561957966655
 31
0.0
  0
ARC
  8
0
  6
CONTINUOUS
 62
0
 10
5.30261803470686
 20
13.9561776859751
 30
0.0
 40
0.157503382705948
 50
179.958039971682
 51
269.935824005227
  0
LINE
  8
0
  6
CONTINUOUS
 62
0
 10
5.30263608883288
 20
13.7987716374986
 30
0.0
 11
6.75932004712742
 21
13.7987716374986
 31
0.0
  0
ARC
  8
0
  6
CONTINUOUS
 62
0
 10
6.75928954010338
 20
13.9562263791085
 30
0.0
 40
0.157552062357063
 50
269.940372488901
 51
359.918156522446
  0
LINE
  8
0
  6
CONTINUOUS
 62
0
 10
6.91674420629428
 20
13.9561957966655
 30
0.0
 11
6.91674420629428
 21
14.8223689960838
 31
0.0
  0
ENDSEC
  0
EOF
